<svg viewBox="0 0 32 32" fill="none" xmlns="http://www.w3.org/2000/svg">
  <defs>
    <linearGradient id="hex-grad" x1="0" y1="0" x2="1" y2="1">
      <stop offset="0%" stop-color="#61B2FF"/>
      <stop offset="50%" stop-color="#2394FF"/>
      <stop offset="100%" stop-color="#1A7FE0"/>
    </linearGradient>
    <clipPath id="hex-outer">
      <path d="M16 2.5 L27.5 9.25 L27.5 22.75 L16 29.5 L4.5 22.75 L4.5 9.25 Z"/>
    </clipPath>
    <clipPath id="hex-cutout">
      <path d="M0 0 H32 V32 H0 Z M16 10.5 L21 13.5 L21 19.5 L16 22.5 L11 19.5 L11 13.5 Z" clip-rule="evenodd"/>
    </clipPath>
  </defs>
  <g clip-path="url(#hex-outer)">
    <g clip-path="url(#hex-cutout)">
      <rect width="32" height="32" fill="url(#hex-grad)"/>
      <path d="M4.5 9.25 L16 16 L16 2.5 Z" fill="rgba(255,255,255,0.12)"/>
      <path d="M27.5 9.25 L16 16 L16 2.5 Z" fill="rgba(255,255,255,0.06)"/>
      <path d="M27.5 22.75 L16 16 L27.5 9.25 Z" fill="rgba(0,0,0,0.05)"/>
      <path d="M16 29.5 L16 16 L27.5 22.75 Z" fill="rgba(0,0,0,0.12)"/>
      <path d="M4.5 22.75 L16 16 L16 29.5 Z" fill="rgba(0,0,0,0.18)"/>
      <path d="M4.5 9.25 L16 16 L4.5 22.75 Z" fill="rgba(0,0,0,0.08)"/>
    </g>
  </g>
</svg>
