<?xml version="1.0" encoding="UTF-8"?>
<svg xmlns="http://www.w3.org/2000/svg" xmlns:xlink="http://www.w3.org/1999/xlink" viewBox="0 0 145.799799999999777 168.257800000001225">
  <defs>
    <clipPath id="clippath">
      <path d="M.070300000000316,115.400400000000445c.005900000000111,5.976500000000669,4.247999999999593,13.308600000000297,9.427200000000084,16.290999999999258l54.0625,31.142600000001039c5.179199999999582,2.982399999998961,13.649499999999534,2.974599999999555,18.822799999999916-.017600000001039l54.010699999999815-31.246099999998478c5.173399999999674-2.992200000000594,9.40139999999974-10.332000000000335,9.395499999999629-16.308600000000297l-.059499999999389-62.398400000000038c-.005900000000111-5.976599999999962-4.248100000000704-13.308600000000297-9.427300000000287-16.29110000000037L82.230900000000474,5.423800000000483c-5.179200000000492-2.98240000000078-13.64890000000014-2.974599999999555-18.822200000000521.019500000000335L9.405700000000252,36.693300000000818C4.23239999999987,39.6875.004899999999907,47.027299999999741.010699999999815,53.003899999999703l.059600000000501,62.396500000000742Z"/>
    </clipPath>
    <clipPath id="clippath-1">
      <path d="M63.449200000000019,47.631800000001022c5.173300000000381-2.993200000000797,13.643600000000333-3.001000000000204,18.822799999999916-.017600000001039l17.508700000000317,10.08600000000115c5.179199999999582,2.983399999999165,9.421400000000176,10.315399999999499,9.427300000000287,16.291999999999462l.019499999999425,20.195299999999406c.005900000000111,5.976500000000669-4.222099999999955,13.316399999999703-9.395499999999629,16.309500000001208l-17.498999999999796,10.123099999998885c-5.173300000000381,2.993200000000797-13.643600000000333,3.001000000000204-18.821800000000621.016600000000835l-17.494099999999889-10.082000000000335c-5.178299999999581-2.984399999999368-9.420900000000074-10.316399999999703-9.427300000000287-16.292999999999665l-.022399999999834-20.204100000000835c-.006400000000212-5.976599999999962,4.221199999999953-13.316399999999703,9.394500000000335-16.309600000000501l17.487299999999777-10.116199999998571Z" style="clip-path: url(#clippath);"/>
    </clipPath>
  </defs>
  <g style="isolation: isolate;">
    <g id="Layer_2" data-name="Layer 2">
      <g id="Layer_1-2" data-name="Layer 1">
        <g>
          <path d="M.070300000000316,115.400400000000445c.005900000000111,5.976500000000669,4.247999999999593,13.308600000000297,9.427200000000084,16.290999999999258l54.0625,31.142600000001039c5.179199999999582,2.982399999998961,13.649499999999534,2.974599999999555,18.822799999999916-.017600000001039l54.010699999999815-31.246099999998478c5.173399999999674-2.992200000000594,9.40139999999974-10.332000000000335,9.395499999999629-16.308600000000297l-.059499999999389-62.398400000000038c-.005900000000111-5.976599999999962-4.248100000000704-13.308600000000297-9.427300000000287-16.29110000000037L82.230900000000474,5.423800000000483c-5.179200000000492-2.98240000000078-13.64890000000014-2.974599999999555-18.822200000000521.019500000000335L9.405700000000252,36.693300000000818C4.23239999999987,39.6875.004899999999907,47.027299999999741.010699999999815,53.003899999999703l.059600000000501,62.396500000000742Z"/>
          <path d="M63.449200000000019,47.631800000001022c5.173300000000381-2.993200000000797,13.643600000000333-3.001000000000204,18.822799999999916-.017600000001039l17.508700000000317,10.08600000000115c5.179199999999582,2.983399999999165,9.421400000000176,10.315399999999499,9.427300000000287,16.291999999999462l.019499999999425,20.195299999999406c.005900000000111,5.976500000000669-4.222099999999955,13.316399999999703-9.395499999999629,16.309500000001208l-17.498999999999796,10.123099999998885c-5.173300000000381,2.993200000000797-13.643600000000333,3.001000000000204-18.821800000000621.016600000000835l-17.494099999999889-10.082000000000335c-5.178299999999581-2.984399999999368-9.420900000000074-10.316399999999703-9.427300000000287-16.292999999999665l-.022399999999834-20.204100000000835c-.006400000000212-5.976599999999962,4.221199999999953-13.316399999999703,9.394500000000335-16.309600000000501l17.487299999999777-10.116199999998571Z"/>
          <g style="clip-path: url(#clippath-1);">
            <g>
              <polygon points="72.814400000000205 0 145.718700000000354 41.996100000000297 145.799799999999777 126.128899999999703 72.97649999999976 168.257800000001225 .081000000000131 126.267499999999927 0 42.136700000000928 72.814400000000205 0"/>
              <polygon points="-36.753899999999703 70.132800000001225 -14.902399999999943 151.376900000001115 178.30370000000039 99.009700000000521 156.447200000000521 17.765600000000632 -36.753899999999703 70.132800000001225"/>
              <polygon points="-25.73239999999987 43.869099999999889 33.699200000000019 -15.675799999999072 164.394500000000335 118.138600000000224 104.956000000000131 177.6875 -25.73239999999987 43.869099999999889" style="mix-blend-mode: overlay; opacity: .5;"/>
            </g>
          </g>
        </g>
      </g>
    </g>
  </g>
</svg>