<?xml version="1.0" encoding="UTF-8"?>
<svg xmlns="http://www.w3.org/2000/svg" xmlns:xlink="http://www.w3.org/1999/xlink" viewBox="0 0 145.79989999999998 168.257400000000416">
  <defs>
    <clipPath id="clippath">
      <path d="M.070400000000518,115.399900000000343c.005799999998999,5.976599999999962,4.247999999999593,13.308600000000297,9.427699999998367,16.290999999999258l54.061499999999796,31.142600000001039c5.179700000000594,2.982399999998961,13.650400000000445,2.974599999999555,18.823300000001836-.017600000001039l54.010699999998906-31.245999999999185c5.172899999999572-2.992200000000594,9.401400000000649-10.332100000001446,9.395500000000538-16.308600000000297l-.059600000000501-62.398000000000138c-.005800000000818-5.976999999999862-4.247999999999593-13.308100000000195-9.427700000000186-16.291500000000269L82.231499999999869,5.424299999999675c-5.179700000000594-2.983400000000074-13.649400000000242-2.975099999999657-18.823300000000017.018600000000333L9.406299999998737,36.693900000000212C4.232500000000073,39.6875.004899999999907,47.026899999999841.010800000000017,53.003899999999703l.059600000000501,62.39600000000064Z" style="fill: none;"/>
    </clipPath>
    <clipPath id="clippath-1">
      <path d="M63.449300000000221,47.631400000000212c5.172800000000279-2.993200000000797,13.643499999998312-3.001000000000204,18.822199999998702-.017100000000028l17.509799999999814,10.085900000000038c5.17870000000039,2.983899999999267,9.420900000000984,10.3149999999996,9.426800000001094,16.291999999999462l.019500000000335,20.194800000000214c.005799999998999,5.976599999999962-4.221700000000055,13.316399999999703-9.395500000000538,16.309600000000501l-17.498999999999796,10.123099999998885c-5.173899999999776,2.993099999999686-13.643599999999424,3.000900000000911-18.822299999999814.016600000000835l-17.493200000000797-10.082099999999627c-5.17870000000039-2.984300000000076-9.420899999999165-10.316400000001522-9.427700000000186-16.292900000000373l-.022499999999127-20.203700000000026c-.005800000000818-5.976999999999862,4.220699999999852-13.315900000000511,9.394599999999627-16.309000000000196l17.487300000000687-10.117199999999684Z" style="clip-path: url(#clippath); fill: none;"/>
    </clipPath>
    <linearGradient id="linear-gradient" x1="-2543.82106850121454" y1="-519.836297645226296" x2="-2543.82106850121454" y2="-350.53023779515712" gradientTransform="translate(-824.559997280000516 -2335.622468959999424) rotate(-120.051880948115127)" gradientUnits="userSpaceOnUse">
      <stop offset="0" stop-color="#a2a2a2"/>
      <stop offset="1" stop-color="#787878"/>
    </linearGradient>
    <linearGradient id="linear-gradient-2" x1="-3041.560367471489371" y1="538.781204874603645" x2="-2935.923091653463416" y2="361.954961369886064" gradientTransform="translate(-1135.403448380000327 2856.210723740001868) rotate(104.945072562507164) scale(1.000027424623945 -1.000027424623945)" gradientUnits="userSpaceOnUse">
      <stop offset="0" stop-color="#b6b6b6"/>
      <stop offset="1" stop-color="#696969"/>
    </linearGradient>
    <linearGradient id="linear-gradient-3" x1="-1813.584138331857503" y1="530.961409518557048" x2="-1714.823051889666431" y2="365.645219899083997" gradientTransform="translate(91.009257740000749 -1739.351033620000635) rotate(-75.054927437492836)" xlink:href="#linear-gradient-2"/>
  </defs>
  <g style="isolation: isolate;">
    <g id="Layer_2" data-name="Layer 2">
      <g id="Layer_1-2" data-name="Layer 1">
        <g style="clip-path: url(#clippath-1);">
          <g>
            <polygon points="72.814500000000407 0 145.718799999998737 41.996100000000297 145.79989999999998 126.128399999999601 72.976599999999962 168.257400000000416 .081099999999424 126.267099999999118 0 42.136700000000019 72.814500000000407 0" style="fill: url(#linear-gradient);"/>
            <polygon points="-36.753899999999703 70.132799999999406 -14.902299999999741 151.376500000000306 178.303799999999683 99.009299999999712 156.447299999999814 17.765699999999924 -36.753899999999703 70.132799999999406" style="fill: url(#linear-gradient-2);"/>
            <polygon points="-25.73240000000078 43.869200000000092 33.699300000000221 -15.675799999999981 164.394599999999627 118.138199999999415 104.956099999999424 177.686999999999898 -25.73240000000078 43.869200000000092" style="fill: url(#linear-gradient-3); mix-blend-mode: overlay; opacity: .5;"/>
          </g>
        </g>
      </g>
    </g>
  </g>
</svg>