<?xml version="1.0" encoding="UTF-8"?>
<svg xmlns="http://www.w3.org/2000/svg" xmlns:xlink="http://www.w3.org/1999/xlink" viewBox="0 0 145.799800000000687 168.257800000001225">
  <defs>
    <clipPath id="clippath">
      <path d="M.070300000000316,115.400400000000445c.005799999999908,5.976500000000669,4.248000000000502,13.308600000000297,9.427700000000186,16.290999999999258l54.061499999999796,31.142600000001039c5.179699999999684,2.982399999998961,13.650400000000445,2.974599999999555,18.823300000000017-.017600000001039l54.010699999999815-31.246099999998478c5.173800000000483-2.992200000000594,9.401400000000649-10.332000000000335,9.395500000000538-16.308600000000297l-.059600000000501-62.398400000000038c-.005799999999908-5.976599999999962-4.247999999999593-13.308600000000297-9.427700000000186-16.29110000000037L82.231400000000576,5.423800000000483c-5.179700000000594-2.98240000000078-13.649400000000242-2.974599999999555-18.823199999999815.019500000000335L9.406200000000354,36.693300000000818C4.23240000000078,39.6875.004800000000614,47.027299999999741.010700000000725,53.003899999999703l.059599999999591,62.396500000000742Z" style="fill: none;"/>
    </clipPath>
    <clipPath id="clippath-1">
      <path d="M63.449200000000928,47.630800000000818c5.173799999999574-2.992200000000594,13.643499999999221-3,18.823199999999815-.016600000000835l17.507799999999406,10.08600000000115c5.179700000000594,2.983399999999165,9.421900000000278,10.315399999999499,9.427800000000389,16.291999999999462l.019500000000335,20.195299999999406c.005799999998999,5.976500000000669-4.222700000000259,13.316399999999703-9.395500000000538,16.308600000000297l-17.498999999999796,10.122999999999593c-5.173899999999776,2.994200000001001-13.643600000000333,3.002000000000407-18.822299999999814.017600000001039l-17.493200000000797-10.082000000000335c-5.17869999999948-2.984399999999368-9.420899999999165-10.316399999999703-9.427699999999277-16.292999999999665l-.022500000000036-20.204100000000835c-.006800000000112-5.977600000000166,4.220699999999852-13.315399999999499,9.394599999999627-16.309600000000501l17.487300000000687-10.117199999998775Z" style="clip-path: url(#clippath); fill: none;"/>
    </clipPath>
    <linearGradient id="linear-gradient" x1="1458.048985079356498" y1="-5028.594353022335781" x2="1458.048985079356498" y2="-4859.288091615168014" gradientTransform="translate(5082.357332480000878 -1129.589496639997833) rotate(-120.051880948115127)" gradientUnits="userSpaceOnUse">
      <stop offset="0" stop-color="#a2a2a2"/>
      <stop offset="1" stop-color="#787878"/>
    </linearGradient>
    <linearGradient id="linear-gradient-2" x1="2174.094303995931114" y1="-3467.26535264649192" x2="2279.731651698857604" y2="-3644.091716479349998" gradientTransform="translate(4080.35605569000063 -1149.995235569999068) rotate(104.945072562507164) scale(1.000027424623945 -1.000027424623945)" gradientUnits="userSpaceOnUse">
      <stop offset="0" stop-color="#b6b6b6"/>
      <stop offset="1" stop-color="#696969"/>
    </linearGradient>
    <linearGradient id="linear-gradient-3" x1="-426.871934923836307" y1="-3475.085014164485074" x2="-328.110660478656143" y2="-3640.401518482175106" gradientTransform="translate(3604.018312510001124 633.6500024700008) rotate(-75.054927437492836)" xlink:href="#linear-gradient-2"/>
  </defs>
  <g style="isolation: isolate;">
    <g id="Layer_2" data-name="Layer 2">
      <g id="Layer_1-2" data-name="Layer 1">
        <g style="clip-path: url(#clippath-1);">
          <g>
            <polygon points="72.814400000000205 0 145.718700000000354 41.996100000000297 145.799800000000687 126.128899999999703 72.976500000000669 168.257800000001225 .081000000000131 126.267499999999927 0 42.136700000000928 72.814400000000205 0" style="fill: url(#linear-gradient);"/>
            <polygon points="-36.753999999999905 70.132800000001225 -14.902399999999034 151.376900000001115 178.30370000000039 99.009700000000521 156.447200000000521 17.765600000000632 -36.753999999999905 70.132800000001225" style="fill: url(#linear-gradient-2);"/>
            <polygon points="-25.732500000000073 43.869099999999889 33.699200000000928 -15.675799999999072 164.394500000000335 118.138600000000224 104.956000000000131 177.6875 -25.732500000000073 43.869099999999889" style="fill: url(#linear-gradient-3); mix-blend-mode: overlay; opacity: .5;"/>
          </g>
        </g>
      </g>
    </g>
  </g>
</svg>