<?xml version="1.0" encoding="UTF-8"?>
<svg xmlns="http://www.w3.org/2000/svg" xmlns:xlink="http://www.w3.org/1999/xlink" viewBox="0 0 145.799796316787251 168.257799999999406">
  <defs>
    <clipPath id="clippath">
      <path d="M.07129999819881,115.399400000000242c.004899999876216,5.976599999999962,4.24709989270923,13.308600000000297,9.425819203212086,16.291999999999462l54.062479192938554,31.141600000000835c5.179699869149772,2.983399999999165,13.650399655161891,2.975599999999758,18.82419952446071-.016600000000835l54.00979863559769-31.246100000000297c5.173799869298819-2.992199999998775,9.401299762503186-10.332000000000335,9.396522647002712-16.308600000000297l-.060622882847383-62.399399999999332c-.005899999850953-5.976999999999862-4.247999892686494-13.308100000000195-9.427699761836266-16.291500000000269L82.231497922657582,5.424299999999675c-5.179699869149772-2.983400000000074-13.649499655184627-2.975099999999657-18.822299524508708.018600000000333L9.405299762402137,36.692900000000009C4.232399893080583,39.686499999999796.004899999876216,47.025899999999638.010799999727169,53.002899999999499l.060499998471641,62.396500000000742Z" style="fill: none;"/>
    </clipPath>
    <clipPath id="clippath-1">
      <path d="M63.449198397138389,47.631400000000212c5.172920804272508-2.993200000000797,13.643599655333674-3.001000000000204,18.823299524483446-.017100000000028l17.507799557715771,10.085899999999128c5.179699869149772,2.983900000000176,9.421899761982786,10.315000000000509,9.427699761836266,16.292000000000371l.019599999504862,20.195300000000316c.00579999985348,5.976599999999962-4.222699893325625,13.316399999999703-9.39559976264718,16.309600000000501l-17.498999557938077,10.122999999999593c-5.173799869298819,2.993199999998978-13.642599655358936,3.001000000000204-18.822199524511234.016599999999016l-17.494199558059336-10.081999999998516c-5.177699869200296-2.984400000001187-9.41989976203331-10.316400000001522-9.426699761861528-16.293000000001484l-.022499999431602-20.204599999999118c-.005899999850953-5.976999999999862,4.220720125180378-13.315900000000511,9.394499762674968-16.309000000000196l17.487299558233644-10.116699999999582Z" style="clip-path: url(#clippath); fill: none;"/>
    </clipPath>
    <linearGradient id="linear-gradient" x1="-892.384863528753158" y1="-1472.277321699501044" x2="-892.384863528753158" y2="-1302.971029832539216" gradientTransform="translate(826.912529937476847 -1383.12172353925871) rotate(-120.051880948115127)" gradientUnits="userSpaceOnUse">
      <stop offset="0" stop-color="#61b2ff"/>
      <stop offset="1" stop-color="#1a8fff"/>
    </linearGradient>
    <linearGradient id="linear-gradient-2" x1="-1657.389413189119296" y1="-524.362144880050437" x2="-1551.752053292569599" y2="-701.188529123815215" gradientTransform="translate(248.783300423454421 1793.009168237598715) rotate(104.945072562507164) scale(1.000027424623945 -1.000027424623945)" gradientUnits="userSpaceOnUse">
      <stop offset="0" stop-color="#82c2ff"/>
      <stop offset="1" stop-color="#0082ff"/>
    </linearGradient>
    <linearGradient id="linear-gradient-3" x1="-996.966491103838962" y1="-532.181916647844446" x2="-898.204834355208732" y2="-697.499060903306713" gradientTransform="translate(907.613013539367785 -676.150220217597735) rotate(-75.054927437492836)" xlink:href="#linear-gradient-2"/>
  </defs>
  <g style="isolation: isolate;">
    <g id="Layer_2" data-name="Layer 2">
      <g id="Layer_1-2" data-name="Layer 1">
        <g style="clip-path: url(#clippath-1);">
          <g>
            <polygon points="72.814498160551011 0 145.718796318833483 41.995100000000093 145.799796316787251 126.128899999999703 72.976598156456021 168.257799999999406 .08111920140982 126.266599999999016 0 42.135800000000017 72.814498160551011 0" style="fill: url(#linear-gradient);"/>
            <polygon points="-36.753880798589307 70.132799999999406 -14.902299623536237 151.377000000000407 178.303695495669672 99.00879999999961 156.447296047808777 17.765599999999722 -36.753880798589307 70.132799999999406" style="fill: url(#linear-gradient-2);"/>
            <polygon points="-25.732399349944899 43.868199999999888 33.699199148686603 -15.676699999999983 164.394495847045619 118.138699999999517 104.95611920140982 177.6875 -25.732399349944899 43.868199999999888" style="fill: url(#linear-gradient-3); mix-blend-mode: overlay; opacity: .5;"/>
          </g>
        </g>
      </g>
    </g>
  </g>
</svg>