<?xml version="1.0" encoding="UTF-8"?>
<svg xmlns="http://www.w3.org/2000/svg" xmlns:xlink="http://www.w3.org/1999/xlink" viewBox="0 0 145.799796316787251 168.257800000001225">
  <defs>
    <clipPath id="clippath">
      <path d="M.07129999819881,115.400400000000445c.004899999876216,5.976500000000669,4.24709989270923,13.308600000000297,9.425819203212086,16.290999999999258l54.062479192938554,31.142600000001039c5.179699869149772,2.982399999998961,13.650399655161891,2.974599999999555,18.82419952446071-.017600000001039l54.00979863559769-31.246099999998478c5.173799869298819-2.992200000000594,9.401299762503186-10.332000000000335,9.396522647002712-16.308600000000297l-.060622882847383-62.398400000000038c-.005899999850953-5.976599999999962-4.247999892686494-13.308600000000297-9.427699761836266-16.29110000000037L82.231497922657582,5.423800000000483c-5.179699869149772-2.98240000000078-13.649499655184627-2.974599999999555-18.822299524508708.019500000000335L9.405299762402137,36.693300000000818C4.232399893080583,39.6875.004899999876216,47.027299999999741.010799999727169,53.003899999999703l.060499998471641,62.396500000000742Z" style="fill: #fff;"/>
    </clipPath>
    <clipPath id="clippath-1">
      <path d="M63.449198397138389,47.631800000001022c5.172920804272508-2.993200000000797,13.643599655333674-3.001000000000204,18.823299524483446-.017600000001039l17.507799557715771,10.08600000000115c5.179699869149772,2.983399999999165,9.421899761982786,10.315399999999499,9.427699761836266,16.291999999999462l.019599999504862,20.195299999999406c.00579999985348,5.976500000000669-4.222699893325625,13.316399999999703-9.39559976264718,16.309500000001208l-17.498999557938077,10.123099999998885c-5.173799869298819,2.993200000000797-13.642599655358936,3.001000000000204-18.822199524511234.016600000000835l-17.494199558059336-10.082000000000335c-5.177699869200296-2.984399999999368-9.41989976203331-10.316399999999703-9.426699761861528-16.292999999999665l-.022499999431602-20.204100000000835c-.005899999850953-5.976599999999962,4.220720125180378-13.316399999999703,9.394499762674968-16.309600000000501l17.487299558233644-10.116199999998571Z" style="clip-path: url(#clippath); fill: #fff;"/>
    </clipPath>
  </defs>
  <g style="isolation: isolate;">
    <g id="Layer_2" data-name="Layer 2">
      <g id="Layer_1-2" data-name="Layer 1">
        <g>
          <path d="M.07129999819881,115.400400000000445c.004899999876216,5.976500000000669,4.24709989270923,13.308600000000297,9.425819203212086,16.290999999999258l54.062479192938554,31.142600000001039c5.179699869149772,2.982399999998961,13.650399655161891,2.974599999999555,18.82419952446071-.017600000001039l54.00979863559769-31.246099999998478c5.173799869298819-2.992200000000594,9.401299762503186-10.332000000000335,9.396522647002712-16.308600000000297l-.060622882847383-62.398400000000038c-.005899999850953-5.976599999999962-4.247999892686494-13.308600000000297-9.427699761836266-16.29110000000037L82.231497922657582,5.423800000000483c-5.179699869149772-2.98240000000078-13.649499655184627-2.974599999999555-18.822299524508708.019500000000335L9.405299762402137,36.693300000000818C4.232399893080583,39.6875.004899999876216,47.027299999999741.010799999727169,53.003899999999703l.060499998471641,62.396500000000742Z" style="fill: #fff;"/>
          <path d="M63.449198397138389,47.631800000001022c5.172920804272508-2.993200000000797,13.643599655333674-3.001000000000204,18.823299524483446-.017600000001039l17.507799557715771,10.08600000000115c5.179699869149772,2.983399999999165,9.421899761982786,10.315399999999499,9.427699761836266,16.291999999999462l.019599999504862,20.195299999999406c.00579999985348,5.976500000000669-4.222699893325625,13.316399999999703-9.39559976264718,16.309500000001208l-17.498999557938077,10.123099999998885c-5.173799869298819,2.993200000000797-13.642599655358936,3.001000000000204-18.822199524511234.016600000000835l-17.494199558059336-10.082000000000335c-5.177699869200296-2.984399999999368-9.41989976203331-10.316399999999703-9.426699761861528-16.292999999999665l-.022499999431602-20.204100000000835c-.005899999850953-5.976599999999962,4.220720125180378-13.316399999999703,9.394499762674968-16.309600000000501l17.487299558233644-10.116199999998571Z" style="fill: #fff;"/>
          <g style="clip-path: url(#clippath-1);">
            <g>
              <polygon points="72.814498160551011 0 145.718796318833483 41.996100000000297 145.799796316787251 126.128899999999703 72.976598156456021 168.257800000001225 .08111920140982 126.267499999999927 0 42.136700000000928 72.814498160551011 0" style="fill: #fff;"/>
              <polygon points="-36.753880798589307 70.132800000001225 -14.902299623536237 151.376900000001115 178.303695495669672 99.009700000000521 156.447296047808777 17.765600000000632 -36.753880798589307 70.132800000001225" style="fill: #fff;"/>
              <polygon points="-25.732399349944899 43.869099999999889 33.699199148686603 -15.675799999999072 164.394495847045619 118.138600000000224 104.95611920140982 177.6875 -25.732399349944899 43.869099999999889" style="fill: #fff; mix-blend-mode: overlay; opacity: .5;"/>
            </g>
          </g>
        </g>
      </g>
    </g>
  </g>
</svg>