<?xml version="1.0" encoding="UTF-8"?>
<svg xmlns="http://www.w3.org/2000/svg" xmlns:xlink="http://www.w3.org/1999/xlink" viewBox="0 0 403.628899999999703 64.303198375564534">
  <defs>
    <clipPath id="clippath">
      <path d="M.027400000000853,44.102598885874613c.001899999999296,2.284099942298781,1.622999999999593,5.085899871519359,3.602499999999054,6.225999842718011l20.66110000000117,11.901399699345347c1.979499999999462,1.140080100390151,5.216799999998329,1.137199971271912,7.193400000000111-.006299999840849l20.641599999999016-11.941499698332336c1.976500000000669-1.14349997111276,3.592800000000352-3.948199900260079,3.590799999999945-6.232399842556333l-.023400000000038-23.847599397558952c-.002000000000407-2.284199942296254-1.623100000000704-5.085999871516833-3.602600000000166-6.225599842728116L31.426800000001094,2.073299947624037c-1.979500000001281-1.140699971183494-5.215900000001056-1.137221419296111-7.193400000000111.006778580704122L3.594699999999648,14.022999645749223C1.617200000000594,15.166999616849353.002000000000407,17.971699545996671.003899999999703,20.255899488292926l.02350000000115,23.846699397581688Z" style="fill: none;"/>
    </clipPath>
    <clipPath id="clippath-1">
      <path d="M24.248999999999796,18.203078528327751c1.977600000000166-1.143478959289496,5.213900000000649-1.146378959216236,7.193400000000111-.006278988017584l6.691399999999703,3.85449990262714c1.979500000001281,1.140099971198651,3.600600000001577,3.94189990041923,3.602500000000873,6.226099842715485l.007799999999406,7.718679242675535c.002000000000407,2.284220504629957-1.613199999999779,5.088920433777275-3.590799999999945,6.232420404890036l-6.6875,3.869199902255787c-1.977499999999054,1.14349997111276-5.213799999999537,1.146499971036974-7.193299999998999.00579999985348l-6.685600000000704-3.852499902677664c-1.979499999999462-1.14059997118602-3.600599999999758-3.942399900406599-3.603499999999258-6.226599842702853l-.007800000001225-7.721599804935977c-.002899999999499-2.284199942296254,1.612300000000687-5.089399871430942,3.589799999999741-6.232999842541176l6.683600000000297-3.866720914142206Z" style="clip-path: url(#clippath); fill: none;"/>
    </clipPath>
    <linearGradient id="linear-gradient" x1="-1375.355994164829099" y1="981.506890975738315" x2="-1375.355994164829099" y2="1046.21057521942862" gradientTransform="translate(-1538.593669094120287 -650.570193984683783) rotate(-120.051880948115127)" gradientUnits="userSpaceOnUse">
      <stop offset="0" stop-color="#a2a2a2"/>
      <stop offset="1" stop-color="#787878"/>
    </linearGradient>
    <linearGradient id="linear-gradient-2" x1="-3898.97462908939815" y1="1082.060317808645777" x2="-3858.6028538127307" y2="1014.48200030179089" gradientTransform="translate(-1986.221271434070104 3509.682919455873161) rotate(104.945072562507164) scale(1.000027424623945 -1.000027424623945)" gradientUnits="userSpaceOnUse">
      <stop offset="0" stop-color="#b6b6b6"/>
      <stop offset="1" stop-color="#696969"/>
    </linearGradient>
    <linearGradient id="linear-gradient-3" x1="-637.247724247037695" y1="1079.217167552732462" x2="-599.503928964431225" y2="1016.037825944838346" gradientTransform="translate(-826.302922314069519 -836.763491904127477) rotate(-75.054927437492836)" xlink:href="#linear-gradient-2"/>
  </defs>
  <g style="isolation: isolate;">
    <g id="Layer_2" data-name="Layer 2">
      <g id="Layer_1-2" data-name="Layer 1">
        <g>
          <g>
            <path d="M113.66990000000078,53.049298659861961V4.984399874083465l12.234399999999368-1.865199952881085v23.839799397755996l1.938500000000204-.534699986492342,9.770500000000538-12.978999672122882h15.291999999999462l-13.873999999999796,17.377999560994795,13.873999999999796,22.225999438524013h-14.471700000000055l-10.590799999999945-17.751899551549286-1.938500000000204.535099986482237v17.216799565067049h-12.234399999999368Z" style="fill: #e3e3e3;"/>
            <path d="M198.027400000000853,53.049298659861961V13.445299660343153h10.589799999999741l1.64259999999922,4.997599873750005c1.244099999999889-1.541499961058435,2.398400000000038-2.622099933760182,3.470699999999852-3.245099918021879,1.066400000001522-.620599984322325,1.900400000000445-1.055199973343406,2.496100000000297-1.304721087743019,1.343699999999444-.546378865494262,2.847600000000966-.820778858562335,4.513600000000224-.820778858562335,1.66610000000037,0,2.896500000000742.149399996225839,3.691399999999703.447299988700252v11.710399704170413c-1.492099999999482-.049299998754577-3.394499999998516-.07419999812555-5.704999999999927-.07419999812555-2.3125,0-4.127000000000407.273399993093335-5.447299999999814.820799979264848-1.316399999999703.547799986161408-2.322299999999814,1.740699956026219-3.019500000000335,3.57859990959696v23.494099406489113h-12.232399999998961Z" style="fill: #e3e3e3;"/>
            <path d="M226.929700000000594,42.68019892180746v-3.428699913383753c0-3.231499918365444.970699999999852-5.905299850819574,2.908199999999852-8.018599797433126,1.941399999999703-2.110820682662052,4.800799999999072-3.168399919959484,8.578100000000632-3.168399919959484h10.591799999998329c.050800000000891-1.044499973613711.050800000000891-1.590799959813012,0-1.640199958565063,0-1.890099952252058-.375-3.09569992179604-1.121099999998478-3.617599908611737-.744099999999889-.52249998680054-2.259700000000521-.782799980224809-4.546800000000076-.782799980224809-2.289099999999962,0-7.310600000000704.27299999310344-15.068400000000111.819399979300215v-7.384299813456892c2.488299999999072-1.044399973616237,5.074199999999109-1.76369995544519,7.757799999999406-2.163099945355498,2.734399999999368-.397899989948201,6.326199999999517-.595699984951352,10.777299999999741-.595699984951352,4.449300000000221,0,7.968800000000556.969299975513422,10.554700000000594,2.908199926532689,2.585999999999331,1.939499951004109,3.878899999999703,5.371099864314601,3.878899999999703,10.292999739976949v27.147899314186361h-9.695299999999406l-2.537100000001374-4.177699894462421c-.400399999998626.845699978635821-1.566399999999703,1.829099953793047-3.505799999998999,2.947299925544939-1.939500000000407,1.119099971729156-4.08009999999922,1.677699957617733-6.41610000000037,1.677699957617733-4.076100000000224,0-7.122999999999593-1.118199971751892-9.136699999999109-3.35839991515968-2.013600000000224-2.237299943481048-3.019500000000335-4.721699880719825-3.019500000000335-7.457999811595073ZM242.667999999999665,44.098198885985767c2.386700000000928,0,4.498000000001412-.944399976142449,6.339799999999741-2.8329999284324v-6.043999847315717l-7.009699999998702.598599984878092c-1.892600000001039.148499996248574-2.835999999999331,1.391599964845227-2.835999999999331,3.728599905807641v1.269499967929733c0,1.539099961119064.398499999999331,2.486299937190779,1.193399999998292,2.831999928457662.546900000001187.299799992426415,1.316400000001522.448299988674989,2.3125.448299988674989Z" style="fill: #e3e3e3;"/>
            <path d="M266.685600000000704,38.951699015997292V2.110899946674181l12.232399999998961-1.865299952878559v36.46979907869536c0,2.536099935932725.259700000000521,4.287099891698745.783199999999852,5.256799867202062.521500000000742.970699975478055,1.304700000000594,1.704099956950813,2.347600000000966,2.201199944393011,2.636800000000221,1.04289997365413,3.195299999999406,1.566399960429408,3.542999999999665,1.566399960429408v7.309499815346499h-8.464799999999741c-3.533199999999852,0-6.154300000000148-1.081999972666381-7.869200000001001-3.244099918047141-1.714799999999741-2.164120213486967-2.572199999998702-5.78319985390408-2.572199999998702-10.853499725817528Z" style="fill: #7e7e7e;"/>
            <path d="M288.425800000000891,42.68019892180746v-3.428699913383753c0-3.231499918365444.970699999999852-5.905299850819574,2.908199999999852-8.018599797433126,1.941399999999703-2.110820682662052,4.798799999998664-3.168399919959484,8.58009999999922-3.168399919959484h10.589799999999741c.048800000000483-1.044499973613711.048800000000483-1.590799959813012,0-1.640199958565063,0-1.890099952252058-.371100000000297-3.09569992179604-1.119099999999889-3.617599908611737-.746100000000297-.52249998680054-2.261699999999109-.782799980224809-4.548899999999776-.782799980224809-2.287099999999555,0-7.310499999999593.27299999310344-15.068299999998999.819399979300215v-7.384299813456892c2.488299999999072-1.044399973616237,5.072299999999814-1.76369995544519,7.757799999999406-2.163099945355498,2.734399999999368-.397899989948201,6.326199999999517-.595699984951352,10.777299999999741-.595699984951352,4.451199999999517,0,7.968800000000556.969299975513422,10.554700000000594,2.908199926532689,2.585999999999331,1.939499951004109,3.878899999999703,5.371099864314601,3.878899999999703,10.292999739976949v27.147899314186361h-9.695299999999406l-2.537100000001374-4.177699894462421c-.398400000000038.845699978635821-1.566399999999703,1.829099953793047-3.505799999998999,2.947299925544939-1.939500000000407,1.119099971729156-4.078199999999924,1.677699957617733-6.414099999999962,1.677699957617733-4.078100000000632,0-7.121100000000297-1.118199971751892-9.138700000001336-3.35839991515968-2.013699999999517-2.237299943481048-3.019499999998516-4.721699880719825-3.019499999998516-7.457999811595073ZM304.164099999999962,44.098198885985767c2.386700000000928,0,4.5-.944399976142449,6.339799999999741-2.8329999284324v-6.043999847315717l-7.009799999999814.598599984878092c-1.892499999999927.148499996248574-2.835900000000038,1.391599964845227-2.835900000000038,3.728599905807641v1.269499967929733c0,1.539099961119064.396500000000742,2.486299937190779,1.193400000000111,2.831999928457662.546800000000076.299799992426415,1.316399999999703.448299988674989,2.3125.448299988674989Z" style="fill: #7e7e7e;"/>
            <path d="M329.115200000000186,53.049298659861961V1.962899950412975l12.232500000000073-1.866699952843192v15.21339961567719c3.332000000000335-1.640099958567589,7.009700000000521-2.460899937832437,11.039000000000669-2.460899937832437,3.630899999998292,0,6.363299999999072.820799979264848,8.203199999999924,2.460899937832437,1.890600000000632,1.691899957259011,3.158199999999852,4.028299898236583,3.806599999999889,7.012199822856928.595699999999852,2.883799927149084.894500000000335,6.587899833575648.894500000000335,11.110399719327688,0,6.713799830395146-1.007800000001225,11.735299703541386-3.021500000000742,15.067299619367986-2.015600000000632,3.332099915824074-5.121100000000297,4.997099873762636-9.322200000000521,4.997099873762636-4.20509999999922,0-8.044899999998961-1.443399963536649-11.525399999998626-4.326199890710996l-2.013700000001336,3.878899902010744h-10.292999999999665ZM348.73240000000078,43.351078528327889c2.238299999999072,0,3.58009999999922-1.7372795795809,4.027399999999034-5.218779491630812.197200000000521-1.391599964845227.298800000000483-3.368099914914637.298800000000483-5.929220508369326,0-2.560999999999694-.1875-4.660079224122455-.558600000000297-6.301679182652151-.375-1.640099958567589-.849599999999555-2.696320817347441-1.417999999999665-3.16989991992159-.572200000000521-.472199988071225-1.355400000000373-.70759998212452-2.349599999999555-.70759998212452-3.183600000000297,0-5.619099999999889.447299988700252-7.310499999999593,1.34229996609065v17.898999547833228c1.589799999999741,1.391599964845227,4.027299999999741,2.085879570774523,7.310499999999593,2.085879570774523Z" style="fill: #7e7e7e;"/>
            <path d="M369.617200000000594,27.468799306079745v-3.431720777751252c0-2.138179081541239.322299999999814-3.990179034755784.966800000000148-5.557578995159929.648400000000038-1.566421004840777,1.753899999999703-2.859421004840442,3.320299999999406-3.878899902010744,1.568400000000111-1.017099974305893,3.955100000001039-1.528299961391895,7.162099999999555-1.528299961391895,3.207000000000335,0,5.941399999999703.025899999345711,8.205100000001039.075199998100288,2.259799999999814.049799998741946,4.685499999999593.260199993426795,7.271500000000742.633799983988865,2.583999999998923.37199999060249,4.298799999998664.907699977069569,5.146499999998923,1.603499959492183v7.458499811582442h-17.378899999999703c-.945400000000518,0-1.591800000000148.137699996521405-1.941500000000815.41109998961474-.345699999999852.27299999310344-.519499999998516.832499978969281-.519499999998516,1.677799957615207v1.192799969867337c0,.846699978610559.197299999999814,1.379899965140794.595699999998033,1.603999959479552.39850000000115.223699994348863,1.019600000001446.335499991524557,1.865300000001298.335499991524557h8.576100000000224c2.537099999999555,0,4.625.497999987419462,6.26759999999922,1.490699962341751,2.984399999999368,1.741699956000957,4.474599999999555,4.747999880055431,4.474599999999555,9.022499772072479v4.177699894462421c0,3.730499905759643-.921899999999368,6.441399837276549-2.759799999999814,8.129899794621451-1.839799999999741,1.690399957296904-4.152299999999741,2.536099935932725-6.935499999999593,2.536099935932725-3.980499999999665,0-7.150400000000445-.02639999933308-9.511699999999109-.075199998100288-2.361300000000483-.049799998741946-4.935600000000704-.273399993093335-7.720700000001671-.67089998305164-2.783199999998033-.398399989935569-4.599599999999555-.967799975551316-5.445299999999406-1.714799956680508v-7.382799813494785h18.126899999999296c1.341800000001967,0,2.013700000001336-.647499983642774,2.013700000001336-1.940499950978847v-1.194299969829444c0-.694299982460507-.138700000001336-1.205099969556613-.410200000000259-1.527399961414631-.273400000000038-.325099991787283-.810499999999593-.486299987715029-1.603500000001077-.486299987715029h-8.281199999999444c-7.658199999999852,0-11.484399999999368-3.655299907659355-11.484399999999368-10.960399723117007Z" style="fill: #7e7e7e;"/>
            <path d="M71.568400000000111,33.580599151682691c0-5.552699859726999.613199999999779-9.859399750930606,1.835900000000038-12.915999673714396,1.222700000000259-3.056699922781263,3.142600000001039-5.20709986845759,5.767600000001039-6.457099836879934,2.625-1.246099968520866,6.33009999999922-1.8700999527573,11.119099999999889-1.8700999527573,7.029299999998329,0,11.906299999998737,1.526899961427262,14.632799999999406,4.583499884211051,2.724599999999555,3.056699922781263,4.086900000000242,8.495099785395723,4.086900000000242,16.312999587898958,0,7.820299802442605-1.336900000000242,13.181599667004775-4.010700000000725,16.084999593658722-2.674799999998868,2.906179774228804-7.539099999999962,4.357399889922817-14.594699999999648,4.357399889922817-7.055700000000797,0-11.959000000000742-1.516599961687461-14.708000000000538-4.546899885135645-2.752999999998792-3.031199923425447-4.128899999999703-8.215799792451435-4.128899999999703-15.548799607204273ZM83.929700000000594,27.956599293756881c-.054700000000594,1.858399953052867-.080100000001039,4.083899896832008-.080100000001039,6.682599831183325,0,2.595699934427103.200200000001132,4.648399882571539.597700000000259,6.160099844382785.398400000000038,1.508779559005234,1.004899999999907,2.495199936965946,1.830100000001039,2.942399925668724.822199999998702.452199988576467,2,.675799982927856,3.537099999999555.675799982927856s2.625-.051799998691422,3.259700000000521-.158199996003532c.634799999999814-.10639999731211,1.233399999999165-.330099991660973,1.790100000000166-.676799982902594.556599999999889-.34269999134267.942299999998795-.93842037068498,1.152299999999741-1.787099954854057.475599999999758-1.750899955768546.715799999999945-4.120099895917519.715799999999945-7.117199820204405,0-2.995120595626759-.052700000000186-5.141599870112259-.159200000000055-6.442299837253813-.106400000000576-1.297899967212288-.268500000000131-2.437499938423571-.475500000000466-3.417999913654057-.213900000000649-.979499975255749-.585999999999331-1.68209995750658-1.113299999999072-2.107399946762598-1.486300000000483-1.165599970554467-3.871100000000297-1.511299961821351-7.157200000001467-1.032699973911804-1.377999999998792.211899994646956-2.362299999998868.846599978613085-2.942399999999907,1.905699951857969-.584999999999127,1.063999973121099-.900399999998626,2.519499936352076-.95509999999922,4.373099889526202Z" style="fill: #e3e3e3;"/>
            <path d="M155.849599999999555,53.049298659861961V4.984399874083465l12.23240000000078-1.865199952881085v23.839799397755996l1.938500000000204-.534699986492342,9.770500000000538-12.978999672122882h15.290999999999258l-13.872999999999593,17.377999560994795,13.872999999999593,22.225999438524013h-14.468699999999444l-10.592800000000352-17.751899551549286-1.938500000000204.535099986482237v17.216799565067049h-12.23240000000078Z" style="fill: #e3e3e3;"/>
          </g>
          <g style="clip-path: url(#clippath-1);">
            <g>
              <polygon points="27.828100000000632 0 55.689500000000407 16.04929959456058 55.720699999999852 48.202698782297375 27.889699999999721 64.303198375564534 .031300000000556 48.255398780966061 0 16.102999593204004 27.828100000000632 0" style="fill: url(#linear-gradient);"/>
              <polygon points="-14.045899999999165 26.80279932290432 -5.695299999999406 57.852078528328093 68.142600000001039 37.838399044121616 59.790000000000873 6.789599828480277 -14.045899999999165 26.80279932290432" style="fill: url(#linear-gradient-2);"/>
              <polygon points="-9.833999999998923 16.765199576475425 12.878899999999703 -5.991199848649558 62.827199999999721 45.148898859442852 40.111300000000483 67.906798284529941 -9.833999999998923 16.765199576475425" style="fill: url(#linear-gradient-3); mix-blend-mode: overlay; opacity: .5;"/>
            </g>
          </g>
        </g>
      </g>
    </g>
  </g>
</svg>