<?xml version="1.0" encoding="UTF-8"?>
<svg xmlns="http://www.w3.org/2000/svg" xmlns:xlink="http://www.w3.org/1999/xlink" viewBox="0 0 403.628900000000613 64.303198375564534">
  <defs>
    <clipPath id="clippath">
      <path d="M.027299999999741,44.102598885874613c.002000000000407,2.284099942298781,1.623000000000502,5.085899871519359,3.601600000000872,6.225479642453138l20.662099999999555,11.902419899597589c1.978500000000167,1.139580100402782,5.216800000000148,1.136699971284543,7.193299999999908-.006799999828218l20.640699999999924-11.941499698332336c1.977499999999964-1.14349997111276,3.593700000000354-3.948199900260079,3.591800000000148-6.232399842556333l-.02350000000024-23.847599397558952c-.001899999999296-2.284199942296254-1.623999999999796-5.085999871516833-3.603500000000167-6.226120961321612L31.427700000000186,2.073299947624037c-1.979500000000371-1.140699971183494-5.216800000000148-1.137221419296111-7.193400000000111.006778580704122L3.593700000000354,14.022999645749223C1.617100000000391,15.166999616849353.001900000000205,17.971699545996671.003900000000613,20.255899488292926l.023399999999128,23.846699397581688Z" style="fill: none;"/>
    </clipPath>
    <clipPath id="clippath-1">
      <path d="M24.25,18.203078528327751c1.97649999999976-1.143478959289496,5.213800000000447-1.146378959216236,7.193299999999908-.006278988017584l6.689500000000407,3.85449990262714c1.979499999999462,1.140099971198651,3.60149999999976,3.94189990041923,3.603500000000167,6.226099842715485l.007799999999406,7.718679242675535c.001900000000205,2.284220504629957-1.614300000000185,5.088920433777275-3.591800000000148,6.232420404890036l-6.685499999999593,3.869199902255787c-1.977600000000166,1.14349997111276-5.214899999999943,1.146499971036974-7.193400000000111.00579999985348l-6.6875-3.852499902677664c-1.978500000000167-1.14059997118602-3.599599999999555-3.942399900406599-3.602499999999964-6.226599842702853l-.00879999999961-7.721599804935977c-.002000000000407-2.284199942296254,1.613199999999779-5.089399871430942,3.590799999999945-6.232999842541176l6.684599999999591-3.866720914142206Z" style="clip-path: url(#clippath); fill: none;"/>
    </clipPath>
    <linearGradient id="linear-gradient" x1="1927.518354004888351" y1="-923.37467436407951" x2="1927.518354004888351" y2="-858.670990120389206" gradientTransform="translate(1764.35121250587963 1254.433197215316341) rotate(-120.051880948115127)" gradientUnits="userSpaceOnUse">
      <stop offset="0" stop-color="#61b2ff"/>
      <stop offset="1" stop-color="#1a8fff"/>
    </linearGradient>
    <linearGradient id="linear-gradient-2" x1="-1130.632659558960768" y1="-1044.225876485579647" x2="-1090.260833842679403" y2="-1111.804278423307551" gradientTransform="translate(782.151840615929814 1383.280104555873322) rotate(104.945072562507164) scale(1.000027424623945 -1.000027424623945)" gradientUnits="userSpaceOnUse">
      <stop offset="0" stop-color="#82c2ff"/>
      <stop offset="1" stop-color="#0082ff"/>
    </linearGradient>
    <linearGradient id="linear-gradient-3" x1="995.989134242347973" y1="-1047.069522006358056" x2="1033.732929524953533" y2="-1110.248863614250695" gradientTransform="translate(806.903465635930388 1289.63932299587259) rotate(-75.054927437492836)" xlink:href="#linear-gradient-2"/>
  </defs>
  <g style="isolation: isolate;">
    <g id="Layer_2" data-name="Layer 2">
      <g id="Layer_1-2" data-name="Layer 1">
        <g>
          <g>
            <path d="M113.66989999999987,53.049298659861961V4.984399874083465l12.234400000000278-1.865199952881085v23.839799397755996l1.938400000000001-.534699986492342,9.770499999999629-12.978999672122882h15.292000000000371l-13.873999999999796,17.377999560994795,13.873999999999796,22.225999438524013h-14.471700000000055l-10.590799999999945-17.751899551549286-1.938400000000001.535099986482237v17.216799565067049h-12.234400000000278Z" style="fill: #fff;"/>
            <path d="M198.027299999999741,53.049298659861961V13.445299660343153h10.58980000000065l1.64260000000013,4.997599873750005c1.244200000000092-1.541499961058435,2.398499999999331-2.622099933760182,3.470699999999852-3.245099918021879,1.066399999999703-.620599984322325,1.900399999999536-1.055199973343406,2.496099999999387-1.304721087743019,1.343800000000556-.546378865494262,2.847700000000259-.820778858562335,4.513700000000426-.820778858562335s2.896499999999833.149399996225839,3.691399999999703.447299988700252v11.710399704170413c-1.492199999999684-.049299998754577-3.394499999999425-.07419999812555-5.70510000000013-.07419999812555-2.3125,0-4.126899999999296.273399993093335-5.447199999999611.820799979264848-1.316499999999905.547799986161408-2.322299999999814,1.740699956026219-3.019599999999627,3.57859990959696v23.494099406489113h-12.23240000000078Z" style="fill: #fff;"/>
            <path d="M226.929600000000391,42.68019892180746v-3.428699913383753c0-3.231499918365444.970699999999852-5.905299850819574,2.908199999999852-8.018599797433126,1.941499999999905-2.110820682662052,4.800799999999981-3.168399919959484,8.578199999999924-3.168399919959484h10.591800000000148c.050699999999779-1.044499973613711.050699999999779-1.590799959813012,0-1.640199958565063,0-1.890099952252058-.375-3.09569992179604-1.121100000000297-3.617599908611737-.744200000000092-.52249998680054-2.259799999999814-.782799980224809-4.546900000000278-.782799980224809-2.289099999999962,0-7.310499999999593.27299999310344-15.068399999999201.819399979300215v-7.384299813456892c2.488299999999981-1.044399973616237,5.074299999999312-1.76369995544519,7.757899999999609-2.163099945355498,2.734300000000076-.397899989948201,6.326100000000224-.595699984951352,10.777299999999741-.595699984951352,4.449200000000019,0,7.968700000000354.969299975513422,10.554700000000594,2.908199926532689,2.585900000000038,1.939499951004109,3.878899999999703,5.371099864314601,3.878899999999703,10.292999739976949v27.147899314186361h-9.695300000000316l-2.537099999999555-4.177699894462421c-.400400000000445.845699978635821-1.566399999999703,1.829099953793047-3.505900000000111,2.947299925544939-1.939400000000205,1.119099971729156-4.08010000000013,1.677699957617733-6.416000000000167,1.677699957617733-4.076199999999517,0-7.123099999999795-1.118199971751892-9.136700000000019-3.35839991515968-2.013699999999517-2.237299943481048-3.019599999999627-4.721699880719825-3.019599999999627-7.457999811595073ZM242.667900000000373,44.098198885985767c2.386700000000019,0,4.498099999999795-.944399976142449,6.339899999999943-2.8329999284324v-6.043999847315717l-7.009799999999814.598599984878092c-1.89260000000013.148499996248574-2.835900000000038,1.391599964845227-2.835900000000038,3.728599905807641v1.269499967929733c0,1.539099961119064.398400000000038,2.486299937190779,1.193299999999908,2.831999928457662.546899999999368.299799992426415,1.316399999999703.448299988674989,2.3125.448299988674989Z" style="fill: #fff;"/>
            <path d="M266.685500000000502,38.951699015997292V2.110899946674181l12.23239999999987-1.865299952878559v36.46979907869536c0,2.536099935932725.259799999999814,4.287099891698745.783199999999852,5.256799867202062.521499999999833.970699975478055,1.304699999999684,1.704099956950813,2.347700000000259,2.201199944393011,2.636700000000019,1.04289997365413,3.195299999999406,1.566399960429408,3.542999999999665,1.566399960429408v7.309499815346499h-8.464899999999943c-3.533199999999852,0-6.154300000000148-1.081999972666381-7.869099999999889-3.244099918047141-1.714899999999943-2.164120213486967-2.572299999999814-5.78319985390408-2.572299999999814-10.853499725817528Z" style="fill: #2394ff;"/>
            <path d="M288.425699999999779,42.68019892180746v-3.428699913383753c0-3.231499918365444.970700000000761-5.905299850819574,2.908200000000761-8.018599797433126,1.941399999999703-2.110820682662052,4.798899999999776-3.168399919959484,8.58009999999922-3.168399919959484h10.589900000000853c.048799999999574-1.044499973613711.048799999999574-1.590799959813012,0-1.640199958565063,0-1.890099952252058-.371100000000297-3.09569992179604-1.119200000000092-3.617599908611737-.746100000000297-.52249998680054-2.261700000000019-.782799980224809-4.548800000000483-.782799980224809-2.287099999999555,0-7.310599999999795.27299999310344-15.068400000000111.819399979300215v-7.384299813456892c2.488299999999981-1.044399973616237,5.072299999999814-1.76369995544519,7.757800000000316-2.163099945355498,2.734400000000278-.397899989948201,6.326199999999517-.595699984951352,10.777399999999943-.595699984951352s7.968700000000354.969299975513422,10.554699999999684,2.908199926532689c2.585900000000038,1.939499951004109,3.878900000000613,5.371099864314601,3.878900000000613,10.292999739976949v27.147899314186361h-9.695300000000316l-2.537099999999555-4.177699894462421c-.39850000000024.845699978635821-1.566400000000613,1.829099953793047-3.505900000000111,2.947299925544939-1.939500000000407,1.119099971729156-4.078100000000632,1.677699957617733-6.414099999999962,1.677699957617733-4.078100000000632,0-7.121100000000297-1.118199971751892-9.138600000000224-3.35839991515968-2.013700000000426-2.237299943481048-3.019600000000537-4.721699880719825-3.019600000000537-7.457999811595073ZM304.16399999999976,44.098198885985767c2.386700000000019,0,4.5-.944399976142449,6.339900000000853-2.8329999284324v-6.043999847315717l-7.009800000000723.598599984878092c-1.89260000000013.148499996248574-2.835900000000038,1.391599964845227-2.835900000000038,3.728599905807641v1.269499967929733c0,1.539099961119064.39640000000054,2.486299937190779,1.193299999999908,2.831999928457662.546900000000278.299799992426415,1.316400000000613.448299988674989,2.3125.448299988674989Z" style="fill: #2394ff;"/>
            <path d="M329.115200000000186,53.049298659861961V1.962899950412975l12.23239999999987-1.866699952843192v15.21339961567719c3.332000000000335-1.640099958567589,7.009799999999814-2.460899937832437,11.039099999999962-2.460899937832437,3.630799999999908,0,6.363299999999981.820799979264848,8.203099999999722,2.460899937832437,1.890600000000632,1.691899957259011,3.158200000000761,4.028299898236583,3.806600000000799,7.012199822856928.595699999999852,2.883799927149084.894599999999627,6.587899833575648.894599999999627,11.110399719327688,0,6.713799830395146-1.007800000000316,11.735299703541386-3.021499999999833,15.067299619367986-2.015599999999722,3.332099915824074-5.121100000000297,4.997099873762636-9.322299999999814,4.997099873762636-4.20510000000013,0-8.04490000000078-1.443399963536649-11.525400000000445-4.326199890710996l-2.013600000000224,3.878899902010744h-10.292999999999665ZM348.73239999999987,43.351078528327889c2.238299999999981,0,3.58010000000013-1.7372795795809,4.02730000000065-5.218779491630812.197299999999814-1.391599964845227.298799999999574-3.368099914914637.298799999999574-5.929220508369326,0-2.560999999999694-.1875-4.660079224122455-.558500000000095-6.301679182652151-.375-1.640099958567589-.849699999999757-2.696320817347441-1.417999999999665-3.16989991992159-.572299999999814-.472199988071225-1.355500000000575-.70759998212452-2.349600000000464-.70759998212452-3.183599999999387,0-5.619200000000092.447299988700252-7.310599999999795,1.34229996609065v17.898999547833228c1.589899999999943,1.391599964845227,4.027399999999943,2.085879570774523,7.310599999999795,2.085879570774523Z" style="fill: #2394ff;"/>
            <path d="M369.617100000000391,27.468799306079745v-3.431720777751252c0-2.138179081541239.322299999999814-3.990179034755784.966800000000148-5.557578995159929.648499999999331-1.566421004840777,1.753899999999703-2.859421004840442,3.320399999999609-3.878899902010744,1.568299999999908-1.017099974305893,3.954999999999927-1.528299961391895,7.162100000000464-1.528299961391895,3.206999999999425,0,5.941399999999703.025899999345711,8.204999999999927.075199998100288,2.259799999999814.049799998741946,4.685599999999795.260199993426795,7.271499999999833.633799983988865,2.583999999999833.37199999060249,4.298899999999776.907699977069569,5.146499999999833,1.603499959492183v7.458499811582442h-17.378899999999703c-.945300000000316,0-1.591800000000148.137699996521405-1.941400000000613.41109998961474-.345699999999852.27299999310344-.519499999999425.832499978969281-.519499999999425,1.677799957615207v1.192799969867337c0,.846699978610559.197199999999611,1.379899965140794.595699999999852,1.603999959479552.398400000000038.223699994348863,1.019499999999425.335499991524557,1.865200000000186.335499991524557h8.576199999999517c2.537100000000464,0,4.625.497999987419462,6.26760000000013,1.490699962341751,2.984300000000076,1.741699956000957,4.474600000000464,4.747999880055431,4.474600000000464,9.022499772072479v4.177699894462421c0,3.730499905759643-.921900000000278,6.441399837276549-2.759800000000723,8.129899794621451-1.839799999999741,1.690399957296904-4.152299999999741,2.536099935932725-6.935599999999795,2.536099935932725-3.980400000000373,0-7.150300000000243-.02639999933308-9.511700000000019-.075199998100288-2.361299999999574-.049799998741946-4.935499999999593-.273399993093335-7.720699999999852-.67089998305164-2.783199999999852-.398399989935569-4.599600000000464-.967799975551316-5.445300000000316-1.714799956680508v-7.382799813494785h18.127000000000407c1.341800000000148,0,2.013600000000224-.647499983642774,2.013600000000224-1.940499950978847v-1.194299969829444c0-.694299982460507-.138600000000224-1.205099969556613-.410100000000057-1.527399961414631-.27350000000024-.325099991787283-.810600000000704-.486299987715029-1.603500000000167-.486299987715029h-8.281300000000556c-7.658199999999852,0-11.484399999999368-3.655299907659355-11.484399999999368-10.960399723117007Z" style="fill: #2394ff;"/>
            <path d="M71.568299999999908,33.580599151682691c0-5.552699859726999.613299999999981-9.859399750930606,1.83600000000024-12.915999673714396,1.222600000000057-3.056699922781263,3.142499999999927-5.20709986845759,5.767499999999927-6.457099836879934,2.625-1.246099968520866,6.33010000000013-1.8700999527573,11.119200000000092-1.8700999527573,7.029300000000148,0,11.906200000000354,1.526899961427262,14.632800000000316,4.583499884211051,2.724599999999555,3.056699922781263,4.086899999999332,8.495099785395723,4.086899999999332,16.312999587898958,0,7.820299802442605-1.336899999999332,13.181599667004775-4.010699999999815,16.084999593658722-2.674799999999777,2.906179774228804-7.539099999999962,4.357399889922817-14.59479999999985,4.357399889922817-7.055599999999686,0-11.958999999999833-1.516599961687461-14.707999999999629-4.546899885135645-2.752900000000409-3.031199923425447-4.128900000000613-8.215799792451435-4.128900000000613-15.548799607204273ZM83.929600000000391,27.956599293756881c-.054600000000391,1.858399953052867-.079999999999927,4.083899896832008-.079999999999927,6.682599831183325,0,2.595699934427103.200199999999313,4.648399882571539.597600000000057,6.160099844382785.398499999999331,1.508779559005234,1.004899999999907,2.495199936965946,1.83009999999922,2.942399925668724.822300000000723.452199988576467,2,.675799982927856,3.537100000000464.675799982927856,1.537099999999555,0,2.625-.051799998691422,3.259799999999814-.158199996003532.634700000000521-.10639999731211,1.233400000000074-.330099991660973,1.789999999999964-.676799982902594.556700000000092-.34269999134267.942399999999907-.93842037068498,1.152399999999943-1.787099954854057.475500000000466-1.750899955768546.715799999999945-4.120099895917519.715799999999945-7.117199820204405,0-2.995120595626759-.052799999999479-5.141599870112259-.159200000000055-6.442299837253813-.106399999999667-1.297899967212288-.268599999999424-2.437499938423571-.475599999999758-3.417999913654057-.21389999999974-.979499975255749-.585900000000038-1.68209995750658-1.113299999999981-2.107399946762598-1.486299999999574-1.165599970554467-3.871100000000297-1.511299961821351-7.157199999999648-1.032699973911804-1.377900000000409.211899994646956-2.362300000000687.846599978613085-2.942399999999907,1.905699951857969-.584900000000744,1.063999973121099-.900400000000445,2.519499936352076-.95510000000013,4.373099889526202Z" style="fill: #fff;"/>
            <path d="M155.849600000000464,53.049298659861961V4.984399874083465l12.23239999999987-1.865199952881085v23.839799397755996l1.938500000000204-.534699986492342,9.770499999999629-12.978999672122882h15.291000000000167l-13.873099999999795,17.377999560994795,13.873099999999795,22.225999438524013h-14.468800000000556l-10.59269999999924-17.751899551549286-1.938500000000204.535099986482237v17.216799565067049h-12.23239999999987Z" style="fill: #fff;"/>
          </g>
          <g style="clip-path: url(#clippath-1);">
            <g>
              <polygon points="27.828099999999722 0 55.689400000000205 16.04929959456058 55.720699999999852 48.202698782297375 27.889600000000428 64.303198375564534 .031200000000354 48.255398780966061 0 16.102999593204004 27.828099999999722 0" style="fill: url(#linear-gradient);"/>
              <polygon points="-14.045900000000074 26.80279932290432 -5.695399999999609 57.852078528328093 68.142499999999927 37.838399044121616 59.789999999999964 6.789599828480277 -14.045900000000074 26.80279932290432" style="fill: url(#linear-gradient-2);"/>
              <polygon points="-9.833999999999833 16.765199576475425 12.878900000000613 -5.991199848649558 62.827100000000428 45.148898859442852 40.111300000000483 67.906798284529941 -9.833999999999833 16.765199576475425" style="fill: url(#linear-gradient-3); mix-blend-mode: overlay; opacity: .5;"/>
            </g>
          </g>
        </g>
      </g>
    </g>
  </g>
</svg>