<?xml version="1.0" encoding="UTF-8"?>
<svg xmlns="http://www.w3.org/2000/svg" xmlns:xlink="http://www.w3.org/1999/xlink" viewBox="0 0 403.628899999999703 64.303198375564534">
  <defs>
    <clipPath id="clippath">
      <path d="M.027399999999943,44.102598885874613c.001899999999296,2.284099942298781,1.623499999999694,5.085899871519359,3.602499999999964,6.225479642453138l20.661600000000362,11.902419899597589c1.97899999999936,1.139580100402782,5.216300000000047,1.136699971284543,7.193399999999201-.006799999828218l20.641099999999824-11.941499698332336c1.977100000000064-1.14349997111276,3.592800000000352-3.948199900260079,3.590799999999945-6.232399842556333l-.023399999999128-23.847599397558952c-.002000000000407-2.284199942296254-1.623599999999897-5.085999871516833-3.602600000000166-6.226120961321612L31.427799999999479,2.073299947624037c-1.97899999999936-1.140699971183494-5.216400000000249-1.137221419296111-7.193399999999201.006778580704122L3.59479999999985,14.022999645749223C1.617699999999786,15.166999616849353.001999999999498,17.971699545996671.003899999999703,20.255899488292926l.02350000000024,23.846699397581688Z" style="fill: none;"/>
    </clipPath>
    <clipPath id="clippath-1">
      <path d="M24.25,18.203078528327751c1.977100000000064-1.143478959289496,5.214399999999841-1.146378959216236,7.193400000000111-.006278988017584l6.690399999999499,3.85449990262714c1.979000000000269,1.140099971198651,3.600600000000668,3.94189990041923,3.602600000000166,6.226099842715485l.007800000000316,7.718679242675535c.001899999999296,2.284220504629957-1.613800000000083,5.088920433777275-3.590900000000147,6.232420404890036l-6.686500000000706,3.869199902255787c-1.976999999998952,1.14349997111276-5.214299999999639,1.146499971036974-7.193299999998999.00579999985348l-6.686600000000908-3.852499902677664c-1.97899999999936-1.14059997118602-3.600499999999556-3.942399900406599-3.602999999999156-6.226599842702853l-.008300000000418-7.721599804935977c-.002400000000307-2.284199942296254,1.613299999999981-5.089399871430942,3.590299999999843-6.232999842541176l6.684100000000399-3.866720914142206Z" style="clip-path: url(#clippath); fill: none;"/>
    </clipPath>
    <linearGradient id="linear-gradient" x1="3578.955052590576997" y1="-1875.815197370607166" x2="3578.955052590576997" y2="-1811.111513126917771" gradientTransform="translate(3415.823428185879038 2206.934762975316062) rotate(-120.051880948115127)" gradientUnits="userSpaceOnUse">
      <stop offset="0" stop-color="#61b2ff"/>
      <stop offset="1" stop-color="#1a8fff"/>
    </linearGradient>
    <linearGradient id="linear-gradient-2" x1="253.537919831464023" y1="-2107.368292286671931" x2="293.909493349672914" y2="-2174.946272070028499" gradientTransform="translate(2166.338207955929192 320.078842035873777) rotate(104.945072562507164) scale(1.000027424623945 -1.000027424623945)" gradientUnits="userSpaceOnUse">
      <stop offset="0" stop-color="#82c2ff"/>
      <stop offset="1" stop-color="#0082ff"/>
    </linearGradient>
    <linearGradient id="linear-gradient-3" x1="1812.60769355436878" y1="-2110.211972714017065" x2="1850.351306008687743" y2="-2173.391008285627777" gradientTransform="translate(1623.506298295930037 2352.840585515872135) rotate(-75.054927437492836)" xlink:href="#linear-gradient-2"/>
  </defs>
  <g style="isolation: isolate;">
    <g id="Layer_2" data-name="Layer 2">
      <g id="Layer_1-2" data-name="Layer 1">
        <g>
          <g>
            <path d="M113.670399999999972,53.049298659861961V4.984399874083465l12.23489999999947-1.865199952881085v23.839799397755996l1.938000000000102-.534699986492342,9.77100000000064-12.978999672122882h15.29149999999936l-13.873499999999694,17.377999560994795,13.873499999999694,22.225999438524013h-14.471700000000055l-10.590799999999945-17.751899551549286-1.938000000000102.535099986482237v17.216799565067049h-12.23489999999947Z" style="fill: #0c2433;"/>
            <path d="M198.027900000000045,53.049298659861961V13.445299660343153h10.590299999999843l1.641599999999926,4.997599873750005c1.244099999999889-1.541499961058435,2.398400000000038-2.622099933760182,3.470699999999852-3.245099918021879,1.066400000000613-.620599984322325,1.90139999999974-1.055199973343406,2.497099999999591-1.304721087743019,1.342700000001059-.546378865494262,2.846600000000763-.820778858562335,4.513600000000224-.820778858562335,1.665100000000166,0,2.895500000000538.149399996225839,3.691400000000613.447299988700252v11.710399704170413c-1.493100000000595-.049299998754577-3.394500000000335-.07419999812555-5.705000000000837-.07419999812555-2.3125,0-4.127999999999702.273399993093335-5.447299999999814.820799979264848-1.316399999999703.547799986161408-2.323199999999815,1.740699956026219-3.020499999999629,3.57859990959696v23.494099406489113h-12.231899999999769Z" style="fill: #0c2433;"/>
            <path d="M226.930699999999888,42.68019892180746v-3.428699913383753c0-3.231499918365444.969699999999648-5.905299850819574,2.908199999999852-8.018599797433126,1.940399999999499-2.110820682662052,4.799799999999777-3.168399919959484,8.577100000000428-3.168399919959484h10.592799999999443c.049799999999777-1.044499973613711.049799999999777-1.590799959813012,0-1.640199958565063,0-1.890099952252058-.375-3.09569992179604-1.121099999999387-3.617599908611737-.744099999999889-.52249998680054-2.260700000000725-.782799980224809-4.547800000000279-.782799980224809-2.289099999999962,0-7.309600000000501.27299999310344-15.067399999999907.819399979300215v-7.384299813456892c2.487299999999777-1.044399973616237,5.073199999999815-1.76369995544519,7.757799999999406-2.163099945355498,2.734400000000278-.397899989948201,6.326200000000426-.595699984951352,10.77730000000065-.595699984951352,4.449299999999312,0,7.968799999999646.969299975513422,10.554699999999684,2.908199926532689,2.58600000000024,1.939499951004109,3.878899999999703,5.371099864314601,3.878899999999703,10.292999739976949v27.147899314186361h-9.69629999999961l-2.53610000000026-4.177699894462421c-.400399999999536.845699978635821-1.566399999999703,1.829099953793047-3.506800000000112,2.947299925544939-1.938500000000204,1.119099971729156-4.079099999999926,1.677699957617733-6.415100000000166,1.677699957617733-4.076099999999315,0-7.122999999999593-1.118199971751892-9.136699999999109-3.35839991515968-2.013700000000426-2.237299943481048-3.019500000000335-4.721699880719825-3.019500000000335-7.457999811595073ZM242.668999999999869,44.098198885985767c2.385699999999815,0,4.497999999999593-.944399976142449,6.339799999999741-2.8329999284324v-6.043999847315717l-7.010699999999815.598599984878092c-1.891599999999926.148499996248574-2.83600000000024,1.391599964845227-2.83600000000024,3.728599905807641v1.269499967929733c0,1.539099961119064.39850000000024,2.486299937190779,1.194400000000314,2.831999928457662.545900000000074.299799992426415,1.316399999999703.448299988674989,2.3125.448299988674989Z" style="fill: #0c2433;"/>
            <path d="M266.685599999999795,38.951699015997292V2.110899946674181l12.23239999999987-1.865299952878559v36.46979907869536c0,2.536099935932725.259799999999814,4.287099891698745.783199999999852,5.256799867202062.522500000000036.970699975478055,1.305699999999888,1.704099956950813,2.34860000000026,2.201199944393011,2.635800000000017,1.04289997365413,3.194400000000314,1.566399960429408,3.542999999999665,1.566399960429408v7.309499815346499h-8.464799999999741c-3.533199999999852,0-6.155300000000352-1.081999972666381-7.869200000000092-3.244099918047141-1.714799999999741-2.164120213486967-2.573199999999815-5.78319985390408-2.573199999999815-10.853499725817528Z" style="fill: #2394ff;"/>
            <path d="M288.425799999999981,42.68019892180746v-3.428699913383753c0-3.231499918365444.970699999999852-5.905299850819574,2.908199999999852-8.018599797433126,1.941399999999703-2.110820682662052,4.799799999999777-3.168399919959484,8.58010000000013-3.168399919959484h10.590799999999945c.048799999999574-1.044499973613711.048799999999574-1.590799959813012,0-1.640199958565063,0-1.890099952252058-.372099999999591-3.09569992179604-1.119099999999889-3.617599908611737-.746100000000297-.52249998680054-2.262700000000223-.782799980224809-4.549799999999777-.782799980224809-2.286200000000463,0-7.309600000000501.27299999310344-15.067399999999907.819399979300215v-7.384299813456892c2.487299999999777-1.044399973616237,5.072199999999611-1.76369995544519,7.757799999999406-2.163099945355498,2.733400000000074-.397899989948201,6.326199999999517-.595699984951352,10.777299999999741-.595699984951352,4.451200000000426,0,7.968800000000556.969299975513422,10.55370000000039,2.908199926532689,2.58600000000024,1.939499951004109,3.878999999999905,5.371099864314601,3.878999999999905,10.292999739976949v27.147899314186361h-9.695399999999609l-2.53610000000026-4.177699894462421c-.398400000000038.845699978635821-1.566400000000613,1.829099953793047-3.506800000000112,2.947299925544939-1.938500000000204,1.119099971729156-4.077199999999721,1.677699957617733-6.413099999999758,1.677699957617733-4.079099999999926,0-7.122100000000501-1.118199971751892-9.138700000000426-3.35839991515968-2.013699999999517-2.237299943481048-3.020499999999629-4.721699880719825-3.020499999999629-7.457999811595073ZM304.165099999999256,44.098198885985767c2.385700000000725,0,4.5-.944399976142449,6.33980000000065-2.8329999284324v-6.043999847315717l-7.010699999999815.598599984878092c-1.891600000000835.148499996248574-2.83600000000024,1.391599964845227-2.83600000000024,3.728599905807641v1.269499967929733c0,1.539099961119064.397500000000036,2.486299937190779,1.194399999999405,2.831999928457662.545900000000984.299799992426415,1.316400000000613.448299988674989,2.3125.448299988674989Z" style="fill: #2394ff;"/>
            <path d="M329.115299999999479,53.049298659861961V1.962899950412975l12.23239999999987-1.866699952843192v15.21339961567719c3.332000000000335-1.640099958567589,7.010700000000725-2.460899937832437,11.040000000000873-2.460899937832437,3.629899999999907,0,6.363299999999072.820799979264848,8.203099999999722,2.460899937832437,1.890699999999924,1.691899957259011,3.158199999999852,4.028299898236583,3.805699999999888,7.012199822856928.595699999999852,2.883799927149084.894500000000335,6.587899833575648.894500000000335,11.110399719327688,0,6.713799830395146-1.006800000000112,11.735299703541386-3.020500000000538,15.067299619367986-2.015599999999722,3.332099915824074-5.121999999999389,4.997099873762636-9.323199999999815,4.997099873762636-4.204099999999926,0-8.043999999999869-1.443399963536649-11.524400000000242-4.326199890710996l-2.013699999999517,3.878899902010744h-10.293900000000576ZM348.733400000000074,43.351078528327889c2.237299999999777,0,3.579099999999926-1.7372795795809,4.02639999999974-5.218779491630812.198199999999815-1.391599964845227.299799999999777-3.368099914914637.299799999999777-5.929220508369326,0-2.560999999999694-.1875-4.660079224122455-.559599999999591-6.301679182652151-.375-1.640099958567589-.84860000000026-2.696320817347441-1.417900000000373-3.16989991992159-.572299999999814-.472199988071225-1.355499999999665-.70759998212452-2.348699999999553-.70759998212452-3.184500000000298,0-5.619099999999889.447299988700252-7.310500000000502,1.34229996609065v17.898999547833228c1.58980000000065,1.391599964845227,4.02730000000065,2.085879570774523,7.310500000000502,2.085879570774523Z" style="fill: #2394ff;"/>
            <path d="M369.617199999999684,27.468799306079745v-3.431720777751252c0-2.138179081541239.323300000000017-3.990179034755784.967800000000352-5.557578995159929.648400000000038-1.566421004840777,1.753899999999703-2.859421004840442,3.319299999999203-3.878899902010744,1.569400000000314-1.017099974305893,3.955100000001039-1.528299961391895,7.162100000000464-1.528299961391895,3.207999999999629,0,5.941400000000613.025899999345711,8.20510000000013.075199998100288,2.260800000000017.049799998741946,4.685599999999795.260199993426795,7.271499999999833.633799983988865,2.585000000000036.37199999060249,4.299799999999777.907699977069569,5.147500000000036,1.603499959492183v7.458499811582442h-17.379899999999907c-.944400000000314,0-1.591800000000148.137699996521405-1.940499999999702.41109998961474-.346599999999853.27299999310344-.520500000000538.832499978969281-.520500000000538,1.677799957615207v1.192799969867337c0,.846699978610559.197300000000723,1.379899965140794.595700000000761,1.603999959479552.398499999999331.223699994348863,1.019599999999627.335499991524557,1.865299999999479.335499991524557h8.577100000000428c2.536199999999553,0,4.625.497999987419462,6.266599999999016,1.490699962341751,2.984400000000278,1.741699956000957,4.474600000000464,4.747999880055431,4.474600000000464,9.022499772072479v4.177699894462421c0,3.730499905759643-.920900000000074,6.441399837276549-2.759699999999611,8.129899794621451-1.839900000000853,1.690399957296904-4.152400000000853,2.536099935932725-6.935600000000704,2.536099935932725-3.980499999999665,0-7.149399999999332-.02639999933308-9.511699999999109-.075199998100288-2.361300000000483-.049799998741946-4.934600000000501-.273399993093335-7.720700000000761-.67089998305164-2.783199999999852-.398399989935569-4.599599999999555-.967799975551316-5.444300000000112-1.714799956680508v-7.382799813494785h18.126900000000205c1.341800000000148,0,2.012700000000223-.647499983642774,2.012700000000223-1.940499950978847v-1.194299969829444c0-.694299982460507-.137700000000223-1.205099969556613-.410100000000057-1.527399961414631-.27350000000024-.325099991787283-.809599999999591-.486299987715029-1.602600000000166-.486299987715029h-8.281200000000354c-7.658199999999852,0-11.485399999999572-3.655299907659355-11.485399999999572-10.960399723117007Z" style="fill: #2394ff;"/>
            <path d="M71.568899999999303,33.580599151682691c0-5.552699859726999.61370000000079-9.859399750930606,1.83640000000014-12.915999673714396,1.222700000000259-3.056699922781263,3.14260000000013-5.20709986845759,5.76760000000013-6.457099836879934,2.625-1.246099968520866,6.329099999999926-1.8700999527573,11.118600000000697-1.8700999527573,7.028800000000047,0,11.906799999999748,1.526899961427262,14.632799999999406,4.583499884211051,2.724200000000565,3.056699922781263,4.087000000000444,8.495099785395723,4.087000000000444,16.312999587898958,0,7.820299802442605-1.337000000000444,13.181599667004775-4.011300000000119,16.084999593658722-2.674300000000585,2.906179774228804-7.53899999999976,4.357399889922817-14.594200000000455,4.357399889922817-7.055199999999786,0-11.958999999999833-1.516599961687461-14.708499999999731-4.546899885135645-2.7524999999996-3.031199923425447-4.128400000000511-8.215799792451435-4.128400000000511-15.548799607204273ZM83.930699999999888,27.956599293756881c-.054700000000594,1.858399953052867-.080600000000231,4.083899896832008-.080600000000231,6.682599831183325,0,2.595699934427103.200200000000223,4.648399882571539.598200000000361,6.160099844382785.398400000000038,1.508779559005234,1.004399999999805,2.495199936965946,1.829099999999926,2.942399925668724.822199999999611.452199988576467,2.000500000000102.675799982927856,3.538099999999758.675799982927856,1.537099999999555,0,2.624499999999898-.051799998691422,3.259200000000419-.158199996003532.634799999999814-.10639999731211,1.233399999999165-.330099991660973,1.790100000000166-.676799982902594.556599999999889-.34269999134267.941899999999805-.93842037068498,1.152299999999741-1.787099954854057.47609999999986-1.750899955768546.715299999999843-4.120099895917519.715299999999843-7.117199820204405,0-2.995120595626759-.051699999999983-5.141599870112259-.158599999999751-6.442299837253813-.106500000000779-1.297899967212288-.268100000000231-2.437499938423571-.47610000000077-3.417999913654057-.213399999999638-.979499975255749-.584999999999127-1.68209995750658-1.113299999999072-2.107399946762598-1.485400000000482-1.165599970554467-3.871100000000297-1.511299961821351-7.156700000000455-1.032699973911804-1.378499999999804.211899994646956-2.361899999999878.846599978613085-2.941899999999805,1.905699951857969-.585500000000138,1.063999973121099-.900400000000445,2.519499936352076-.95510000000013,4.373099889526202Z" style="fill: #0c2433;"/>
            <path d="M155.850599999999758,53.049298659861961V4.984399874083465l12.231899999999769-1.865199952881085v23.839799397755996l1.938500000000204-.534699986492342,9.770999999999731-12.978999672122882h15.291000000000167l-13.873499999999694,17.377999560994795,13.873499999999694,22.225999438524013h-14.469199999999546l-10.592800000000352-17.751899551549286-1.938500000000204.535099986482237v17.216799565067049h-12.231899999999769Z" style="fill: #0c2433;"/>
          </g>
          <g style="clip-path: url(#clippath-1);">
            <g>
              <polygon points="27.829099999999926 0 55.689499999999498 16.04929959456058 55.720699999999852 48.202698782297375 27.890199999999822 64.303198375564534 .031299999999646 48.255398780966061 0 16.102999593204004 27.829099999999926 0" style="fill: url(#linear-gradient);"/>
              <polygon points="-14.045399999999972 26.80279932290432 -5.694300000000112 57.852078528328093 68.14260000000013 37.838399044121616 59.790599999999358 6.789599828480277 -14.045399999999972 26.80279932290432" style="fill: url(#linear-gradient-2);"/>
              <polygon points="-9.833499999999731 16.765199576475425 12.879899999999907 -5.991199848649558 62.827699999999822 45.148898859442852 40.111799999999675 67.906798284529941 -9.833499999999731 16.765199576475425" style="fill: url(#linear-gradient-3); mix-blend-mode: overlay; opacity: .5;"/>
            </g>
          </g>
        </g>
      </g>
    </g>
  </g>
</svg>