<?xml version="1.0" encoding="UTF-8"?>
<svg xmlns="http://www.w3.org/2000/svg" xmlns:xlink="http://www.w3.org/1999/xlink" viewBox="0 0 403.628899999999703 64.303200000000288">
  <defs>
    <clipPath id="clippath">
      <path d="M.027399999999943,44.101999999998952c.001899999999296,2.285200000000259,1.622999999999593,5.08600000000115,3.602499999999964,6.226599999999962l20.66110000000026,11.901300000001356c1.979499999999462,1.139699999999721,5.216799999999239,1.137699999999313,7.193399999999201-.006800000001022l20.641599999999926-11.941399999999703c1.977500000000873-1.14259999999922,3.592800000000352-3.947299999999814,3.590799999999945-6.232399999998961l-.023400000000038-23.847200000001067c-.001999999999498-2.284200000000055-1.623099999999795-5.085900000000038-3.602599999999256-6.225599999999758L31.426800000000185,2.073199999999815c-1.979500000000371-1.140599999999722-5.215900000001056-1.137200000000121-7.193400000000111.006800000000112L3.594699999999648,14.022899999999936C1.617199999999684,15.166999999999462.001999999999498,17.971599999999853.003899999999703,20.255799999999908l.02350000000024,23.846199999999044Z" style="fill: #231f20;"/>
    </clipPath>
    <clipPath id="clippath-1">
      <path d="M24.248999999999796,18.203099999999722c1.977600000000166-1.143600000000333,5.21389999999974-1.146499999999833,7.193400000000111-.006400000000212l6.691399999999703,3.854500000000371c1.979500000000371,1.140199999999822,3.600599999999758,3.941899999999805,3.602499999999964,6.22609999999986l.007900000000518,7.719199999999546c.001899999999296,2.283300000000963-1.613300000000891,5.087900000000445-3.590900000000147,6.232500000000073l-6.6875,3.869099999999889c-1.977499999999964,1.142600000001039-5.213800000000447,1.146500000000742-7.193299999999908.005900000000111l-6.685600000000704-3.853499999999258c-1.979499999999462-1.140699999999924-3.600599999999758-3.941500000000815-3.603499999999258-6.226599999999962l-.007800000000316-7.721199999999953c-.002900000000409-2.284200000000055,1.612299999999777-5.089400000000751,3.589799999999741-6.232900000000882l6.683600000000297-3.866699999999582Z" style="clip-path: url(#clippath); fill: #231f20;"/>
    </clipPath>
  </defs>
  <g style="isolation: isolate;">
    <g id="Layer_2" data-name="Layer 2">
      <g id="Layer_1-2" data-name="Layer 1">
        <g>
          <g>
            <path d="M113.66989999999987,53.049300000000585V4.984300000000076l12.234399999999368-1.865200000000186v23.839799999999741l1.938500000000204-.534599999999955,9.770500000000538-12.979000000000269h15.291999999999462l-13.873999999999796,17.377900000000409,13.873999999999796,22.22610000000077h-14.471700000000055l-10.590799999999945-17.752000000000407-1.938500000000204.535200000000259v17.216800000000148h-12.234399999999368Z" style="fill: #231f20;"/>
            <path d="M198.027399999999943,53.049300000000585V13.445299999999406h10.589799999999741l1.64260000000013,4.9975000000004c1.244099999999889-1.541500000000269,2.398400000000038-2.622000000000298,3.470699999999852-3.245100000000093,1.066399999999703-.620600000000195,1.900399999999536-1.055199999999786,2.496100000000297-1.304699999999684,1.343699999999444-.546400000000176,2.847600000000057-.820800000000418,4.513599999999315-.820800000000418,1.66610000000037,0,2.896500000000742.149400000000242,3.691500000000815.447299999999814v11.710399999999936c-1.492200000000594-.049299999999675-3.394600000000537-.074200000000019-5.70510000000013-.074200000000019-2.3125,0-4.127000000000407.27350000000024-5.447300000000723.820800000000418-1.316399999999703.547899999999572-2.322299999999814,1.740799999999581-3.019499999999425,3.578599999999824v23.494200000001001h-12.23239999999987Z" style="fill: #231f20;"/>
            <path d="M226.929699999999684,42.680099999999584v-3.42870000000039c0-3.231399999998757.970699999999852-5.90519999999924,2.908199999999852-8.018499999999221,1.941399999999703-2.110900000000584,4.800799999999981-3.168500000000677,8.578100000000632-3.168500000000677h10.591799999999239c.050799999999981-1.044399999999769.050799999999981-1.590799999999945,0-1.64009999999962,0-1.890199999999822-.375-3.095699999999852-1.121099999999387-3.617699999999786-.744099999999889-.522500000000036-2.259700000000521-.78269999999975-4.546800000000076-.78269999999975-2.289099999999962,0-7.310600000000704.272899999999936-15.068400000000111.819299999999203v-7.384299999999712c2.488299999999981-1.044399999999769,5.074200000000019-1.763600000000224,7.757799999999406-2.162999999999556,2.734400000000278-.398000000000138,6.326200000000426-.595700000000761,10.777400000000853-.595700000000761,4.449199999999109,0,7.968699999999444.969200000000455,10.554599999999482,2.908200000000761,2.58600000000024,1.939399999999296,3.878899999999703,5.371099999999387,3.878899999999703,10.292899999999463v27.148000000001048h-9.695299999999406l-2.537100000000464-4.177800000001298c-.400399999999536.845800000000963-1.566399999999703,1.829100000000835-3.505799999999908,2.947299999999814-1.939499999999498,1.119200000001001-4.08010000000013,1.677700000000186-6.41610000000037,1.677700000000186-4.076099999999315,0-7.122999999999593-1.118099999999686-9.136699999999109-3.358399999999165-2.013600000000224-2.237300000000687-3.019500000000335-4.721600000000763-3.019500000000335-7.458000000000538ZM242.667999999999665,44.098099999999249c2.386700000000019,0,4.498000000000502-.944299999999203,6.339799999999741-2.832999999998719v-6.043900000000576l-7.009699999999611.598599999999351c-1.89260000000013.148400000000038-2.83600000000024,1.391600000000835-2.83600000000024,3.728500000001077v1.269499999998516c0,1.539099999999962.39850000000024,2.486400000001595,1.193400000000111,2.832100000001446.546900000000278.299799999998868,1.316399999999703.448199999998906,2.3125.448199999998906Z" style="fill: #231f20;"/>
            <path d="M266.685599999999795,38.951600000000326V2.110799999999472l12.23239999999987-1.865200000000186v36.469700000000557c0,2.536099999999351.259699999999611,4.287099999999555.783199999999852,5.256799999999203.521499999999833.970699999999852,1.304699999999684,1.704100000000835,2.347600000000057,2.201200000001336,2.636800000000221,1.042999999999665,3.195400000000518,1.566399999999703,3.542999999999665,1.566399999999703v7.309600000000501h-8.464799999999741c-3.533199999999852,0-6.154300000000148-1.082000000000335-7.869200000000092-3.244200000001001-1.714799999999741-2.164000000000669-2.572199999999611-5.783199999999852-2.572199999999611-10.853499999999258Z" style="fill: #231f20;"/>
            <path d="M288.425799999999981,42.680099999999584v-3.42870000000039c0-3.231399999998757.970699999999852-5.90519999999924,2.908199999999852-8.018499999999221,1.941399999999703-2.110900000000584,4.798799999999574-3.168500000000677,8.58010000000013-3.168500000000677h10.589799999999741c.048799999999574-1.044399999999769.048799999999574-1.590799999999945,0-1.64009999999962,0-1.890199999999822-.371100000000297-3.095699999999852-1.119099999999889-3.617699999999786-.746100000000297-.522500000000036-2.261700000000019-.78269999999975-4.548900000000685-.78269999999975-2.287099999999555,0-7.310499999999593.272899999999936-15.068299999998999.819299999999203v-7.384299999999712c2.488299999999072-1.044399999999769,5.072299999999814-1.763600000000224,7.757799999999406-2.162999999999556,2.734400000000278-.398000000000138,6.326200000000426-.595700000000761,10.777299999999741-.595700000000761,4.451200000000426,0,7.968800000000556.969200000000455,10.554700000000594,2.908200000000761,2.585999999999331,1.939399999999296,3.878899999999703,5.371099999999387,3.878899999999703,10.292899999999463v27.148000000001048h-9.695299999999406l-2.537100000000464-4.177800000001298c-.398400000000038.845800000000963-1.566399999999703,1.829100000000835-3.505799999999908,2.947299999999814-1.939500000000407,1.119200000001001-4.078199999999924,1.677700000000186-6.414099999999962,1.677700000000186-4.078100000000632,0-7.121100000000297-1.118099999999686-9.138700000000426-3.358399999999165-2.013599999999315-2.237300000000687-3.019499999999425-4.721600000000763-3.019499999999425-7.458000000000538ZM304.164099999999962,44.098099999999249c2.386700000000019,0,4.5-.944299999999203,6.339799999999741-2.832999999998719v-6.043900000000576l-7.009699999999611.598599999999351c-1.89260000000013.148400000000038-2.83600000000024,1.391600000000835-2.83600000000024,3.728500000001077v1.269499999998516c0,1.539099999999962.396499999999833,2.486400000001595,1.193400000000111,2.832100000001446.546799999999166.299799999998868,1.316399999999703.448199999998906,2.3125.448199999998906Z" style="fill: #231f20;"/>
            <path d="M329.115199999999277,53.049300000000585V1.962899999999536l12.232500000000073-1.866699999999582v15.213299999999435c3.332000000000335-1.64009999999962,7.009700000000521-2.460900000000038,11.039000000000669-2.460900000000038,3.630900000000111,0,6.363299999999981.820800000000418,8.203199999999924,2.460900000000038,1.890599999999722,1.691900000000714,3.158199999999852,4.028400000000147,3.806599999999889,7.012200000000121.595699999999852,2.88380000000052.894500000000335,6.587900000000445.894500000000335,11.110400000000482,0,6.71389999999883-1.007800000000316,11.735300000000279-3.021500000000742,15.067399999999907-2.015599999999722,3.332000000000335-5.121100000000297,4.996999999999389-9.322199999999611,4.996999999999389-4.20510000000013,0-8.04489999999987-1.443299999998999-11.525400000000445-4.326100000000224l-2.013699999999517,3.878900000001522h-10.293000000000575ZM348.73239999999987,43.351000000000568c2.238299999999981,0,3.58010000000013-1.737300000000687,4.027399999999943-5.218700000001263.197199999999611-1.391599999999016.298799999999574-3.368199999998978.298799999999574-5.929199999999582,0-2.560999999999694-.1875-4.660200000000259-.558599999999387-6.301800000000185-.375-1.64009999999962-.849600000000464-2.69629999999961-1.418000000000575-3.16989999999987-.572199999999611-.472200000000157-1.355399999999463-.707499999999527-2.349599999999555-.707499999999527-3.183600000000297,0-5.619099999999889.447299999999814-7.310500000000502,1.342299999999341v17.898900000001049c1.58980000000065,1.391599999999016,4.02730000000065,2.085900000000038,7.310500000000502,2.085900000000038Z" style="fill: #231f20;"/>
            <path d="M369.617199999999684,27.468699999999444v-3.431599999999889c0-2.138199999999415.322299999999814-3.990299999999479.966800000000148-5.557600000000093.648400000000038-1.566399999999703,1.753899999999703-2.859399999999368,3.320299999999406-3.878899999999703,1.568400000000111-1.017100000000028,3.95510000000013-1.528400000000147,7.162100000000464-1.528400000000147,3.206999999999425,0,5.941399999999703.025899999999638,8.20510000000013.075200000000223,2.259799999999814.049799999999777,4.685499999999593.260299999999916,7.271499999999833.63379999999961,2.583999999999833.372100000000501,4.298799999999574.907700000000659,5.146499999999833,1.603500000000167v7.458499999999731h-17.378899999999703c-.945400000000518,0-1.591800000000148.137700000000223-1.941399999999703.411200000000463-.345800000000963.272899999999936-.519600000000537.832499999999527-.519600000000537,1.677700000000186v1.192900000000009c0,.846599999999853.197299999999814,1.379799999999705.595699999999852,1.60399999999936.39850000000024.22360000000026,1.019600000000537.335399999999936,1.865300000000389.335399999999936h8.576100000000224c2.537099999999555,0,4.625.498100000000704,6.26759999999922,1.490700000000288,2.984400000000278,1.741700000000492,4.474600000000464,4.748100000000704,4.474600000000464,9.022500000000946v4.177699999998367c0,3.730500000001484-.921900000000278,6.441400000001522-2.759699999999611,8.129899999999907-1.839900000000853,1.690400000001318-4.152400000000853,2.536200000000463-6.935600000000704,2.536200000000463-3.980499999999665,0-7.150399999999536-.02639999999883-9.511700000000019-.075199999999313-2.361299999999574-.049800000000687-4.935599999999795-.27350000000115-7.720699999999852-.670900000000984-2.783199999999852-.398499999999331-4.599599999999555-.967799999998533-5.445300000000316-1.714899999999034v-7.382799999999406h18.126900000000205c1.341800000000148,0,2.013700000000426-.647500000000946,2.013700000000426-1.940400000001318v-1.194400000000314c0-.694299999999203-.138700000000426-1.204999999999927-.410200000000259-1.527299999999741-.273400000000038-.325199999999313-.810499999999593-.486299999998664-1.603500000000167-.486299999998664h-8.281199999999444c-7.658200000000761,0-11.484400000000278-3.655300000000352-11.484400000000278-10.960500000001048Z" style="fill: #231f20;"/>
            <path d="M71.568399999999201,33.580500000000029c0-5.552700000000186.613300000000891-9.859300000000076,1.835900000000038-12.916000000000167,1.222700000000259-3.056599999999889,3.14260000000013-5.207000000000335,5.76760000000013-6.457000000000335,2.625-1.246099999999387,6.33010000000013-1.870100000000093,11.119100000000799-1.870100000000093,7.029299999999239,0,11.906299999999646,1.526800000000549,14.632799999999406,4.58350000000064,2.724599999999555,3.056599999999889,4.087000000000444,8.495099999999184,4.087000000000444,16.312999999999192,0,7.820300000001225-1.337000000000444,13.181599999999889-4.010800000000017,16.084899999999834-2.674800000000687,2.906300000000556-7.539100000000872,4.35740000000078-14.594700000000557,4.35740000000078-7.055699999999888,0-11.958999999999833-1.516600000000835-14.707999999999629-4.546800000000076-2.752999999999702-3.031300000000556-4.128900000000613-8.215899999999237-4.128900000000613-15.548899999999776ZM83.929699999999684,27.956499999999323c-.054699999999684,1.858400000000074-.08010000000013,4.084000000000742-.08010000000013,6.682600000001003,0,2.595699999999852.200200000000223,4.648499999999331.597700000000259,6.160200000000259.398400000000038,1.50879999999961,1.004899999999907,2.495099999998274,1.83010000000013,2.942399999999907.822199999999611.452099999998609,2,.675699999999779,3.537099999999555.675699999999779,1.537100000000464,0,2.625-.051699999999983,3.259700000000521-.158199999999852.634799999999814-.106400000000576,1.233399999999165-.329999999999927,1.790100000000166-.676699999999983.556599999999889-.342800000000352.942399999999907-.938500000000204,1.152299999999741-1.787100000001374.475599999999758-1.751000000000204.715799999999945-4.120100000000093.715799999999945-7.117199999998775,0-2.995100000001003-.052700000000186-5.141600000000835-.159099999999853-6.442400000000816-.106500000000779-1.29779999999937-.268600000000333-2.4375-.475600000000668-3.417999999999665-.21389999999974-.979500000000371-.585999999999331-1.682099999999991-1.113299999999981-2.10739999999987-1.486299999999574-1.165500000000065-3.871099999999387-1.511199999999917-7.157199999999648-1.03269999999975-1.377999999999702.211899999999332-2.362299999999777.846699999999146-2.942399999999907,1.905799999999545-.585000000000036,1.063900000000103-.900400000000445,2.519500000000335-.95510000000013,4.372999999999593Z" style="fill: #231f20;"/>
            <path d="M155.849599999999555,53.049300000000585V4.984300000000076l12.23239999999987-1.865200000000186v23.839799999999741l1.938500000000204-.534599999999955,9.770500000000538-12.979000000000269h15.290999999999258l-13.872999999999593,17.377900000000409,13.872999999999593,22.22610000000077h-14.468699999999444l-10.592800000000352-17.752000000000407-1.938500000000204.535200000000259v17.216800000000148h-12.23239999999987Z" style="fill: #231f20;"/>
          </g>
          <g>
            <path d="M.027399999999943,44.101999999998952c.001899999999296,2.285200000000259,1.622999999999593,5.08600000000115,3.602499999999964,6.226599999999962l20.66110000000026,11.901300000001356c1.979499999999462,1.139699999999721,5.216799999999239,1.137699999999313,7.193399999999201-.006800000001022l20.641599999999926-11.941399999999703c1.977500000000873-1.14259999999922,3.592800000000352-3.947299999999814,3.590799999999945-6.232399999998961l-.023400000000038-23.847200000001067c-.001999999999498-2.284200000000055-1.623099999999795-5.085900000000038-3.602599999999256-6.225599999999758L31.426800000000185,2.073199999999815c-1.979500000000371-1.140599999999722-5.215900000001056-1.137200000000121-7.193400000000111.006800000000112L3.594699999999648,14.022899999999936C1.617199999999684,15.166999999999462.001999999999498,17.971599999999853.003899999999703,20.255799999999908l.02350000000024,23.846199999999044Z" style="fill: #231f20;"/>
            <path d="M24.248999999999796,18.203099999999722c1.977600000000166-1.143600000000333,5.21389999999974-1.146499999999833,7.193400000000111-.006400000000212l6.691399999999703,3.854500000000371c1.979500000000371,1.140199999999822,3.600599999999758,3.941899999999805,3.602499999999964,6.22609999999986l.007900000000518,7.719199999999546c.001899999999296,2.283300000000963-1.613300000000891,5.087900000000445-3.590900000000147,6.232500000000073l-6.6875,3.869099999999889c-1.977499999999964,1.142600000001039-5.213800000000447,1.146500000000742-7.193299999999908.005900000000111l-6.685600000000704-3.853499999999258c-1.979499999999462-1.140699999999924-3.600599999999758-3.941500000000815-3.603499999999258-6.226599999999962l-.007800000000316-7.721199999999953c-.002900000000409-2.284200000000055,1.612299999999777-5.089400000000751,3.589799999999741-6.232900000000882l6.683600000000297-3.866699999999582Z" style="fill: #231f20;"/>
            <g style="clip-path: url(#clippath-1);">
              <g>
                <polygon points="27.828099999999722 0 55.689499999999498 16.049299999999675 55.720699999999852 48.20260000000053 27.889699999999721 64.303200000000288 .031299999999646 48.255299999998897 0 16.103000000000065 27.828099999999722 0" style="fill: #231f20;"/>
                <polygon points="-14.045900000000074 26.802700000000186 -5.695300000000316 57.851999999998952 68.14260000000013 37.838299999999435 59.790099999999256 6.789499999999862 -14.045900000000074 26.802700000000186" style="fill: #231f20;"/>
                <polygon points="-9.833999999999833 16.76509999999962 12.878899999999703 -5.99120000000039 62.827199999999721 45.14890000000014 40.111299999999574 67.906699999999546 -9.833999999999833 16.76509999999962" style="fill: #231f20; mix-blend-mode: overlay; opacity: .5;"/>
              </g>
            </g>
          </g>
        </g>
      </g>
    </g>
  </g>
</svg>