<?xml version="1.0" encoding="UTF-8"?>
<svg xmlns="http://www.w3.org/2000/svg" xmlns:xlink="http://www.w3.org/1999/xlink" viewBox="0 0 403.628915944744222 64.303198375564534">
  <defs>
    <clipPath id="clippath">
      <path d="M.027299999310344,44.102598885874613c.001999999949476,2.284099942298781,1.623099958997045,5.085899871519359,3.602599908990669,6.225999842718011l20.661099478056713,11.901399699345347c1.978499950018886,1.140080100390151,5.216799868212547,1.137199971271912,7.193399818279431-.006299999840849l20.641599478549324-11.941499698332336c1.977499950044148-1.14349997111276,3.592699909240764-3.948199900260079,3.590799909288762-6.232399842556333l-.02349999940634-23.847599397558952c-.001899999952002-2.284199942296254-1.622999958999571-5.085999871516833-3.602499908993195-6.225599842728116L31.426699206094781,2.073299947624037c-1.979499949993624-1.140699971183494-5.215799868237809-1.137221419296111-7.193299818281957.006778580704122L3.59469990919024,14.022999645749223C1.617199959146092,15.166999616849353.001899999952002,17.971699545996671.003899999901478,20.255899488292926l.023399999408866,23.846699397581688Z" style="fill: none;"/>
    </clipPath>
    <clipPath id="clippath-1">
      <path d="M24.248999387418735,18.203078528327751c1.977499950044148-1.143478959289496,5.213899868285807-1.146378959216236,7.193399818279431-.006278988017584l6.691399830961018,3.85449990262714c1.979499949993624,1.140099971198651,3.600599909041193,3.94189990041923,3.602499908993195,6.226099842715485l.00781699909021,7.718679242675535c.002000000000407,2.284220504629957-1.613316958531868,5.088920433777275-3.590816908576016,6.232420404890036l-6.68749983105954,3.869199902255787c-1.977499950044148,1.14349997111276-5.213899868285807,1.146499971036974-7.193399818279431.00579999985348l-6.685499831110064-3.852499902677664c-1.979499949993624-1.14059997118602-3.600599909041193-3.942399900406599-3.602499908993195-6.226599842702853l-.009799999752431-7.721599804935977c-.001999999949476-2.284199942296254,1.613299959244614-5.089399871430942,3.590799909288762-6.232999842541176l6.683599831158062-3.866720914142206Z" style="clip-path: url(#clippath); fill: none;"/>
    </clipPath>
    <linearGradient id="linear-gradient" x1="276.08082501753961" y1="29.066267618713027" x2="276.08082501753961" y2="93.769950637814375" gradientTransform="translate(112.878420435750286 301.931299017085962) rotate(-120.051880948115127)" gradientUnits="userSpaceOnUse">
      <stop offset="0" stop-color="#a2a2a2"/>
      <stop offset="1" stop-color="#787878"/>
    </linearGradient>
    <linearGradient id="linear-gradient-2" x1="-2514.803930179313284" y1="18.91744962807843" x2="-2474.43215573706766" y2="-48.660866482037569" gradientTransform="translate(-602.03500982717776 2446.481738150062483) rotate(104.945072562507164) scale(1.000027424623945 -1.000027424623945)" gradientUnits="userSpaceOnUse">
      <stop offset="0" stop-color="#b6b6b6"/>
      <stop offset="1" stop-color="#696969"/>
    </linearGradient>
    <linearGradient id="linear-gradient-3" x1="179.370585735387067" y1="16.074283616394496" x2="217.114380766440377" y2="-47.105057570424734" gradientTransform="translate(-9.700152031475795 226.437689401683315) rotate(-75.054927437492836)" xlink:href="#linear-gradient-2"/>
  </defs>
  <g style="isolation: isolate;">
    <g id="Layer_2" data-name="Layer 2">
      <g id="Layer_1-2" data-name="Layer 1">
        <g>
          <g>
            <path d="M113.669897128456796,53.049298659861961V4.984399874083465l12.23439969093306-1.865199952881085v23.839799397755996l1.938399951031897-.534699986492342,9.770599753173883-12.978999672122882h15.291899613694113l-13.87399964951328,17.377999560994795,13.87399964951328,22.225999438524013h-14.471599634416634l-10.590899732451362-17.751899551549286-1.938399951031897.535099986482237v17.216799565067049h-12.23439969093306Z" style="fill: #1e1e1e;"/>
            <path d="M198.027294997409626,53.049298659861961V13.445299660343153h10.589899732476624l1.64249995850696,4.997599873750005c1.244199968568864-1.541499961058435,2.398499939408794-2.622099933760182,3.470699912322743-3.245099918021879,1.066499973057944-.620599984322325,1.900399951991858-1.055199973343406,2.49609993694321-1.304721087743019,1.343799966052757-.546378865494262,2.847699928061047-.820778858562335,4.513699885974347-.820778858562335s2.896499926828255.149399996225839,3.691399906747392.447299988700252v11.710399704170413c-1.492199962303857-.049299998754577-3.39447838563683-.07419999812555-5.705099855877052-.07419999812555-2.312499941581336,0-4.126899895745737.273399993093335-5.447199862392154.820799979264848-1.316399966744939.547799986161408-2.322299941333767,1.740699956026219-3.019599923718488,3.57859990959696v23.494099406489113h-12.232399690983584Z" style="fill: #1e1e1e;"/>
            <path d="M226.92969426727359,42.68019892180746v-3.428699913383753c0-3.231499918365444.970699975478055-5.905299850819574,2.908199926532689-8.018599797433126,1.941399950956111-2.110820682662052,4.800699878724117-3.168399919959484,8.578099783298967-3.168399919959484h10.591799732428626c.050799998716684-1.044499973613711.050799998716684-1.590799959813012,0-1.640199958565063,0-1.890099952252058-.374999990526703-3.09569992179604-1.121099971678632-3.617599908611737-.744099981202453-.52249998680054-2.25979994291265-.782799980224809-4.546899885135645-.782799980224809-2.288999942174996,0-7.310499815321236.27299999310344-15.068299619342724.819399979300215v-7.384299813456892c2.488199937142781-1.044399973616237,5.074199871814926-1.76369995544519,7.757799804021488-2.163099945355498,2.734299930925772-.397899989948201,6.326099840189272-.595699984951352,10.777299727742502-.595699984951352,4.449199887603754,0,7.96879979869118.969299975513422,10.554699733365851,2.908199926532689,2.585899934674671,1.939499951004109,3.878899902010744,5.371099864314601,3.878899902010744,10.292999739976949v27.147899314186361h-9.695299755076121l-2.537099935907463-4.177699894462421c-.400399989885045.845699978635821-1.566399960429408,1.829099953793047-3.505899911433517,2.947299925544939-1.939399951006635,1.119099971729156-4.079999896930531,1.677699957617733-6.415999837918207,1.677699957617733-4.076199897026527,0-7.122999820057885-1.118199971751892-9.136699769187544-3.35839991515968-2.013699949129659-2.237299943481048-3.019499923721014-4.721699880719825-3.019499923721014-7.457999811595073ZM242.667893869693216,44.098198885985767c2.38679993970436,0,4.498099886368436-.944399976142449,6.339899839840655-2.8329999284324v-6.043999847315717l-7.009799822917557.598599984878092c-1.892599952188903.148499996248574-2.835877941872241,1.391599964845227-2.835877941872241,3.728599905807641v1.269499967929733c0,1.539099961119064.39837800344867,2.486299937190779,1.193277983367807,2.831999928457662.546899986184144.299799992426415,1.316499966742413.448299988674989,2.312499941581336.448299988674989Z" style="fill: #1e1e1e;"/>
            <path d="M266.685493262957607,38.951699015997292V2.110899946674181l12.232399690983584-1.865299952878559v36.46979907869536c0,2.536099935932725.2597999934369,4.287099891698745.783222990801733,5.256799867202062.521476976238773.970699975478055,1.304676956453477,1.704099956950813,2.347676930105081,2.201199944393011,2.636699933391355,1.04289997365413,3.195323069894584,1.566399960429408,3.542999910496292,1.566399960429408v7.309499815346499h-8.464899786158639c-3.533199910743861,0-6.154299844529305-1.081999972666381-7.869099801209813-3.244099918047141-1.714899956677982-2.164120213486967-2.572299935018236-5.78319985390408-2.572299935018236-10.853499725817528Z" style="fill: #7e7e7e;"/>
            <path d="M288.425792713751434,42.68019892180746v-3.428699913383753c0-3.231499918365444.970699975478055-5.905299850819574,2.908199926532689-8.018599797433126,1.941399950956111-2.110820682662052,4.798799878772115-3.168399919959484,8.579999783250969-3.168399919959484h10.589899732476624c.048799998767208-1.044499973613711.048799998767208-1.590799959813012,0-1.640199958565063,0-1.890099952252058-.371099990625225-3.09569992179604-1.11919997172663-3.617599908611737-.746099981151929-.52249998680054-2.261699942864652-.782799980224809-4.548799885087647-.782799980224809s-7.310499815321236.27299999310344-15.068299619342724.819399979300215v-7.384299813456892c2.488199937142781-1.044399973616237,5.07219987186545-1.76369995544519,7.757799804021488-2.163099945355498,2.734299930925772-.397899989948201,6.326099840189272-.595699984951352,10.777299727742502-.595699984951352s7.96879979869118.969299975513422,10.554699733365851,2.908199926532689c2.585899934674671,1.939499951004109,3.878899902010744,5.371099864314601,3.878899902010744,10.292999739976949v27.147899314186361h-9.695299755076121l-2.537099935907463-4.177699894462421c-.398499989933043.845699978635821-1.566399960429408,1.829099953793047-3.505899911433517,2.947299925544939-1.939399951006635,1.119099971729156-4.078099896978529,1.677699957617733-6.413999837968731,1.677699957617733-4.078199896976002,0-7.121099820105883-1.118199971751892-9.13869976913702-3.35839991515968-2.013699949129659-2.237299943481048-3.019499923721014-4.721699880719825-3.019499923721014-7.457999811595073ZM304.163992316171061,44.098198885985767c2.38679993970436,0,4.499999886320438-.944399976142449,6.339899839840655-2.8329999284324v-6.043999847315717l-7.009776211269127.598599984878092c-1.892623563837333.148499996248574-2.83592354000757,1.391599964845227-2.83592354000757,3.728599905807641v1.269499967929733c0,1.539099961119064.396499989983568,2.486299937190779,1.193299969854706,2.831999928457662.546899986184144.299799992426415,1.316399966744939.448299988674989,2.312499941581336.448299988674989Z" style="fill: #7e7e7e;"/>
            <path d="M329.115191685850732,53.049298659861961V1.962899950412975l12.232399690983584-1.866699952843192v15.21339961567719c3.332099915824074-1.640099958567589,7.009799822917557-2.460899937832437,11.039099721128878-2.460899937832437,3.630899908275751,0,6.363299839249521.820799979264848,8.203099792772264,2.460899937832437,1.890599952239427,1.691899957259011,3.158199920217157,4.028299898236583,3.806699903834669,7.012199822856928.595699984951352,2.883799927149084.894499977403029,6.587899833575648.894499977403029,11.110399719327688,0,6.713799830395146-1.007799974540831,11.735299703541386-3.02149992367049,15.067299619367986-2.015599949081661,3.332099915824074-5.121099870630133,4.997099873762636-9.322299764498894,4.997099873762636-4.204999893772765,0-8.044899796768732-1.443399963536649-11.525299708846433-4.326199890710996l-2.013699949129659,3.878899902010744h-10.292999739976949ZM348.732391190278577,43.351078528327889c2.238299943455786,0,3.580099909559067-1.7372795795809,4.027299898261845-5.218779491630812.197299995015783-1.391599964845227.298899992449151-3.368099914914637.298899992449151-5.929220508369326,0-2.560999999999694-.187475136246576-4.660079224122455-.558599985888577-6.301679182652151-.374999990526703-1.640099958567589-.849599978537299-2.696320817347441-1.417999964178307-3.16989991992159-.572299985542486-.472199988071225-1.35549996575719-.70759998212452-2.349599940644111-.70759998212452-3.183599919575499,0-5.619099858049594.447299988700252-7.310499815321236,1.34229996609065v17.898999547833228c1.589799959838274,1.391599964845227,4.027299898261845,2.085879570774523,7.310499815321236,2.085879570774523Z" style="fill: #7e7e7e;"/>
            <path d="M369.617215944743293,27.468799306079745v-3.431720777751252c0-2.138179081541239.322200000000521-3.990179034755784.966800000000148-5.557578995159929.648400000000038-1.566421004840777,1.753899999999703-2.859421004840442,3.320299999999406-3.878899902010744,1.568300000000818-1.017099974305893,3.955100000001039-1.528299961391895,7.162100000001374-1.528299961391895,3.206999999998516,0,5.941399999999703.025899999345711,8.20509999999922.075199998100288,2.259700000000521.049799998741946,4.685499999999593.260199993426795,7.27139999999963.633799983988865,2.584000000000742.37199999060249,4.298899999999776.907699977069569,5.146500000000742,1.603499959492183v7.458499811582442h-17.378899999999703c-.945300000001225,0-1.591800000000148.137699996521405-1.941400000001522.41109998961474-.345699999999852.27299999310344-.519499999998516.832499978969281-.519499999998516,1.677799957615207v1.192799969867337c0,.846699978610559.197299999999814,1.379899965140794.595699999999852,1.603999959479552.398400000000038.223699994348863,1.019499999998516.335499991524557,1.865200000000186.335499991524557h8.576199999999517c2.537099999999555,0,4.625.497999987419462,6.26759999999922,1.490699962341751,2.984300000000076,1.741699956000957,4.474600000001374,4.747999880055431,4.474600000001374,9.022499772072479v4.177699894462421c0,3.730499905759643-.921900000001187,6.441399837276549-2.759800000001633,8.129899794621451-1.839799999999741,1.690399957296904-4.152299999999741,2.536099935932725-6.935499999999593,2.536099935932725-3.980499999999665,0-7.150400000000445-.02639999933308-9.511699999999109-.075199998100288-2.361399999999776-.049799998741946-4.935600000000704-.273399993093335-7.720800000000963-.67089998305164-2.783199999999852-.398399989935569-4.599599999999555-.967799975551316-5.445299999999406-1.714799956680508v-7.382799813494785h18.127000000000407c1.341800000000148,0,2.013699999999517-.647499983642774,2.013699999999517-1.940499950978847v-1.194299969829444c0-.694299982460507-.138699999999517-1.205099969556613-.410200000000259-1.527399961414631-.273400000000038-.325099991787283-.810499999999593-.486299987715029-1.603499999999258-.486299987715029h-8.281300000000556c-7.658199999999852,0-11.484300000000076-3.655299907659355-11.484300000000076-10.960399723117007Z" style="fill: #7e7e7e;"/>
            <path d="M71.568298192032671,33.580599151682691c0-5.552699859726999.613299984506739-9.859399750930606,1.835999953618739-12.915999673714396,1.222599969114526-3.056699922781263,3.142599920611246-5.20709986845759,5.767599854298169-6.457099836879934,2.624999933686922-1.246099968520866,6.32999984009075-1.8700999527573,11.119099719107908-1.8700999527573,7.029299822424946,0,11.906199699224089,1.526899961427262,14.63279963034438,4.583499884211051,2.724599931170815,3.056699922781263,4.086899896756222,8.495099785395723,4.086899896756222,16.312999587898958,0,7.820299802442605-1.336899966227065,13.181599667004775-4.010699898681196,16.084999593658722-2.674799932428868,2.906179774228804-7.539099809546315,4.357399889922817-14.59479963130434,4.357399889922817-7.055599821760552,0-11.958899697892775-1.516599961687461-14.707999628444668-4.546899885135645-2.752899930455897-3.031199923425447-4.128899895695213-8.215799792451435-4.128899895695213-15.548799607204273ZM83.929697879757441,27.956599293756881c-.054699998618162,1.858399953052867-.080099997976504,4.083899896832008-.080099997976504,6.682599831183325,0,2.595699934427103.200199994942523,4.648399882571539.597599984903354,6.160099844382785.398499989933043,1.508779559005234,1.004918078058836,2.495199936965946,1.830099953767785,2.942399925668724.822299979226955.452199988576467,1.99999994947575.675799982927856,3.537099910645338.675799982927856s2.624999933686922-.051799998691422,3.259799917650525-.158199996003532,1.233399968841695-.330099991660973,1.789999954780797-.676799982902594c.556699985936575-.34269999134267.942399976192974-.93842037068498,1.152399970887927-1.787099954854057.475599987985333-1.750899955768546.715799981917371-4.120099895917519.715799981917371-7.117199820204405,0-2.995120595626759-.052699998668686-5.141599870112259-.15919999597827-6.442299837253813-.10639999731211-1.297899967212288-.268499993217119-2.437499938423571-.475599987985333-3.417999913654057-.213799994598958-.979499975255749-.585899985198921-1.68209995750658-1.113199971878203-2.107399946762598-1.486399962450378-1.165599970554467-3.871099902207789-1.511299961821351-7.157281655749102-1.032699973911804-1.37791812863361.211899994646956-2.362318103765574.846599978613085-2.942418089111015,1.905699951857969-.584899985224183,1.063999973121099-.900299977256509,2.519499936352076-.954999975874671,4.373099889526202Z" style="fill: #1e1e1e;"/>
            <path d="M155.849596062907949,53.049298659861961V4.984399874083465l12.232399690983584-1.865199952881085v23.839799397755996l1.938499951029371-.534699986492342,9.770499753176409-12.978999672122882h15.290999613716849l-13.872999649538542,17.377999560994795,13.872999649538542,22.225999438524013h-14.468699634489894l-10.592799732403364-17.751899551549286-1.938499951029371.535099986482237v17.216799565067049h-12.232399690983584Z" style="fill: #1e1e1e;"/>
          </g>
          <g style="clip-path: url(#clippath-1);">
            <g>
              <polygon points="27.828115944743331 0 55.689398593167425 16.04929959456058 55.720698592376721 48.202698782297375 27.889599295449443 64.303198375564534 .031199999211822 48.255398780966061 0 16.102999593204004 27.828115944743331 0" style="fill: url(#linear-gradient);"/>
              <polygon points="-14.045884055256465 26.80279932290432 -5.69529985612462 57.852078528328093 68.142598278573132 37.838399044121616 59.789998489577556 6.789599828480277 -14.045884055256465 26.80279932290432" style="fill: url(#linear-gradient-2);"/>
              <polygon points="-9.833999751572264 16.765199576475425 12.87889967465162 -5.991199848649558 62.827115944743127 45.148898859442852 40.111298986703332 67.906798284529941 -9.833999751572264 16.765199576475425" style="fill: url(#linear-gradient-3); mix-blend-mode: overlay; opacity: .5;"/>
            </g>
          </g>
        </g>
      </g>
    </g>
  </g>
</svg>