<?xml version="1.0" encoding="UTF-8"?>
<svg xmlns="http://www.w3.org/2000/svg" xmlns:xlink="http://www.w3.org/1999/xlink" viewBox="0 0 403.628900000000613 64.303200000000288">
  <defs>
    <clipPath id="clippath">
      <path d="M.027399999999943,44.101999999998952c.001900000000205,2.284200000000055,1.623500000000604,5.08600000000115,3.602499999999964,6.226599999999962l20.661200000000463,11.901300000001356c1.979000000000269,1.140699999999924,5.216300000000047,1.137699999999313,7.193299999999908-.006800000001022l20.641599999999926-11.940399999999499c1.977100000000064-1.144599999999627,3.592800000000352-3.949200000000928,3.590799999999945-6.233399999999165l-.023400000000038-23.846700000000965c-.001999999999498-2.284200000000055-1.623499999999694-5.085900000000038-3.602499999999964-6.226599999999962L31.426800000000185,2.073199999999815c-1.979000000000269-1.140599999999722-5.216300000000047-1.137200000000121-7.193400000000111.006800000000112L3.59479999999985,14.022899999999936C1.617700000000696,15.166999999999462.002000000000407,17.972099999999955.003900000000613,20.25630000000001l.023499999999331,23.845699999998942Z" style="fill: #fff;"/>
    </clipPath>
    <clipPath id="clippath-1">
      <path d="M24.249099999999999,18.203099999999722c1.976999999999862-1.143600000000333,5.213800000000447-1.146499999999833,7.193299999999908-.006400000000212l6.691400000000613,3.854500000000371c1.979499999999462,1.140199999999822,3.600599999999758,3.942399999999907,3.602599999999256,6.226599999999962l.007800000000316,7.717800000000352c.001900000000205,2.284200000000055-1.613800000000083,5.088799999999537-3.590799999999945,6.233399999999165l-6.6875,3.868099999999686c-1.977100000000064,1.144600000001446-5.21389999999974,1.147500000000946-7.193400000000111.006900000000314l-6.685499999999593-3.853499999999258c-1.979500000000371-1.140699999999924-3.600600000000668-3.942399999999907-3.603100000000268-6.226599999999962l-.00879999999961-7.721199999999953c-.002400000000307-2.284700000000157,1.613299999999981-5.089400000000751,3.590400000000045-6.232900000000882l6.683599999999387-3.866699999999582Z" style="clip-path: url(#clippath); fill: #fff;"/>
    </clipPath>
  </defs>
  <g style="isolation: isolate;">
    <g id="Layer_2" data-name="Layer 2">
      <g id="Layer_1-2" data-name="Layer 1">
        <g>
          <g>
            <path d="M113.670000000000073,53.049300000000585V4.984300000000076l12.234300000000076-1.865200000000186v23.839799999999741l1.938500000000204-.534599999999955,9.770499999999629-12.979000000000269h15.292000000000371l-13.873999999999796,17.377900000000409,13.873999999999796,22.22610000000077h-14.471700000000055l-10.590799999999945-17.752000000000407-1.938500000000204.535200000000259v17.216800000000148h-12.234300000000076Z" style="fill: #fff;"/>
            <path d="M198.027399999999943,53.049300000000585V13.445299999999406h10.58980000000065l1.64259999999922,4.9975000000004c1.244100000000799-1.541500000000269,2.398400000000038-2.622000000000298,3.470700000000761-3.245100000000093,1.066399999999703-.620600000000195,1.900399999999536-1.055199999999786,2.496099999999387-1.304699999999684,1.343800000000556-.546400000000176,2.847700000000259-.820800000000418,4.513700000000426-.820800000000418s2.896499999999833.149400000000242,3.691399999999703.447299999999814v11.710399999999936c-1.492199999999684-.049299999999675-3.394499999999425-.074200000000019-5.70510000000013-.074200000000019-2.3125,0-4.126899999999296.27350000000024-5.447299999999814.820800000000418-1.316399999999703.547899999999572-2.322199999999611,1.740799999999581-3.019500000000335,3.578599999999824v23.494200000001001h-12.23239999999987Z" style="fill: #fff;"/>
            <path d="M226.929700000000594,42.680099999999584v-3.42870000000039c0-3.231399999998757.970699999999852-5.90519999999924,2.908199999999852-8.018499999999221,1.941399999999703-2.110900000000584,4.800799999999981-3.168500000000677,8.578199999999924-3.168500000000677h10.591800000000148c.050699999999779-1.044399999999769.050699999999779-1.590799999999945,0-1.64009999999962,0-1.890199999999822-.375-3.095699999999852-1.121100000000297-3.617699999999786-.744200000000092-.522500000000036-2.259799999999814-.78269999999975-4.546900000000278-.78269999999975-2.289099999999962,0-7.310599999999795.272899999999936-15.068400000000111.819299999999203v-7.384299999999712c2.488299999999981-1.044399999999769,5.074200000000019-1.763600000000224,7.757800000000316-2.162999999999556,2.734400000000278-.398000000000138,6.326200000000426-.595700000000761,10.777399999999943-.595700000000761,4.449200000000019,0,7.968700000000354.969200000000455,10.554700000000594,2.908200000000761,2.585899999999128,1.939399999999296,3.878899999999703,5.371099999999387,3.878899999999703,10.292899999999463v27.148000000001048h-9.695300000000316l-2.537099999999555-4.177800000001298c-.400400000000445.845800000000963-1.566499999999905,1.829100000000835-3.505900000000111,2.947299999999814-1.939500000000407,1.119200000001001-4.08010000000013,1.677700000000186-6.416000000000167,1.677700000000186-4.076200000000426,0-7.123099999999795-1.118099999999686-9.136700000000019-3.358399999999165-2.013699999999517-2.237300000000687-3.019599999999627-4.721600000000763-3.019599999999627-7.458000000000538ZM242.668000000000575,44.098099999999249c2.386700000000019,0,4.498099999999795-.944299999999203,6.339899999999943-2.832999999998719v-6.043900000000576l-7.009799999999814.598599999999351c-1.89260000000013.148400000000038-2.835900000000038,1.391600000000835-2.835900000000038,3.728500000001077v1.269499999998516c0,1.539099999999962.398400000000038,2.486400000001595,1.193299999999908,2.832100000001446.546899999999368.299799999998868,1.316399999999703.448199999998906,2.3125.448199999998906Z" style="fill: #fff;"/>
            <path d="M266.685600000000704,38.951600000000326V2.110799999999472l12.23239999999987-1.865200000000186v36.469700000000557c0,2.536099999999351.259799999999814,4.287099999999555.783199999999852,5.256799999999203.521499999999833.970699999999852,1.304699999999684,1.704100000000835,2.347700000000259,2.201200000001336,2.636700000000019,1.042999999999665,3.195299999999406,1.566399999999703,3.542899999999463,1.566399999999703v7.309600000000501h-8.464799999999741c-3.533199999999852,0-6.154300000000148-1.082000000000335-7.869099999999889-3.244200000001001-1.714899999999943-2.164000000000669-2.572299999999814-5.783199999999852-2.572299999999814-10.853499999999258Z" style="fill: #fff;"/>
            <path d="M288.425799999999981,42.680099999999584v-3.42870000000039c0-3.231399999998757.970699999999852-5.90519999999924,2.908199999999852-8.018499999999221,1.941400000000613-2.110900000000584,4.798900000000685-3.168500000000677,8.58010000000013-3.168500000000677h10.58980000000065c.048899999999776-1.044399999999769.048899999999776-1.590799999999945,0-1.64009999999962,0-1.890199999999822-.371000000000095-3.095699999999852-1.119100000000799-3.617699999999786-.746099999999387-.522500000000036-2.261699999999109-.78269999999975-4.548799999999574-.78269999999975-2.287099999999555,0-7.310599999999795.272899999999936-15.068400000000111.819299999999203v-7.384299999999712c2.488299999999981-1.044399999999769,5.072299999999814-1.763600000000224,7.757800000000316-2.162999999999556,2.734399999999368-.398000000000138,6.326199999999517-.595700000000761,10.777399999999943-.595700000000761,4.451100000000224,0,7.968699999999444.969200000000455,10.554699999999684,2.908200000000761,2.585900000000038,1.939399999999296,3.878900000000613,5.371099999999387,3.878900000000613,10.292899999999463v27.148000000001048h-9.695300000000316l-2.537199999999757-4.177800000001298c-.398400000000038.845800000000963-1.566400000000613,1.829100000000835-3.505799999999908,2.947299999999814-1.939500000000407,1.119200000001001-4.078100000000632,1.677700000000186-6.414100000000872,1.677700000000186-4.078099999999722,0-7.121099999999387-1.118099999999686-9.138599999999315-3.358399999999165-2.013700000000426-2.237300000000687-3.019600000000537-4.721600000000763-3.019600000000537-7.458000000000538ZM304.164099999999962,44.098099999999249c2.386700000000019,0,4.5-.944299999999203,6.33980000000065-2.832999999998719v-6.043900000000576l-7.009700000000521.598599999999351c-1.89260000000013.148400000000038-2.83600000000024,1.391600000000835-2.83600000000024,3.728500000001077v1.269499999998516c0,1.539099999999962.396500000000742,2.486400000001595,1.193400000000111,2.832100000001446.546900000000278.299799999998868,1.316400000000613.448199999998906,2.3125.448199999998906Z" style="fill: #fff;"/>
            <path d="M329.115300000000389,53.049300000000585V1.962899999999536l12.23239999999987-1.866699999999582v15.213299999999435c3.332000000000335-1.64009999999962,7.009799999999814-2.460900000000038,11.039099999999962-2.460900000000038,3.630799999999908,0,6.363199999999779.820800000000418,8.203099999999722,2.460900000000038,1.890600000000632,1.691900000000714,3.158200000000761,4.028400000000147,3.806599999999889,7.012200000000121.595700000000761,2.88380000000052.894600000000537,6.587900000000445.894600000000537,11.110400000000482,0,6.71389999999883-1.007900000000518,11.735300000000279-3.021499999999833,15.067399999999907-2.015699999999924,3.332000000000335-5.121100000000297,4.996999999999389-9.322300000000723,4.996999999999389-4.20509999999922,0-8.04489999999987-1.443299999998999-11.525399999999536-4.326100000000224l-2.013700000000426,3.878900000001522h-10.292899999999463ZM348.732500000000073,43.351000000000568c2.238199999999779,0,3.579999999999927-1.737300000000687,4.027299999999741-5.218700000001263.197300000000723-1.391599999999016.298800000000483-3.368199999998978.298800000000483-5.929199999999582,0-2.560999999999694-.1875-4.660200000000259-.558600000000297-6.301800000000185-.375-1.64009999999962-.849599999999555-2.69629999999961-1.417899999999463-3.16989999999987-.572300000000723-.472200000000157-1.355500000000575-.707499999999527-2.349600000000464-.707499999999527-3.183599999999387,0-5.619200000000092.447299999999814-7.310599999999795,1.342299999999341v17.898900000001049c1.589899999999943,1.391599999999016,4.027399999999943,2.085900000000038,7.310599999999795,2.085900000000038Z" style="fill: #fff;"/>
            <path d="M369.617200000000594,27.468699999999444v-3.431599999999889c0-2.138199999999415.322299999999814-3.990299999999479.966799999999239-5.557600000000093.64850000000024-1.566399999999703,1.753900000000613-2.859399999999368,3.320300000000316-3.878899999999703,1.568400000000111-1.017100000000028,3.95510000000013-1.528400000000147,7.162100000000464-1.528400000000147,3.207099999999627,0,5.941499999999905.025899999999638,8.20509999999922.075200000000223,2.259800000000723.049799999999777,4.685600000000704.260299999999916,7.271500000000742.63379999999961,2.583999999999833.372100000000501,4.298799999999574.907700000000659,5.146499999999833,1.603500000000167v7.458499999999731h-17.378899999999703c-.945300000000316,0-1.591800000000148.137700000000223-1.941400000000613.411200000000463-.345699999999852.272899999999936-.519499999999425.832499999999527-.519499999999425,1.677700000000186v1.192900000000009c0,.846599999999853.197199999999611,1.379799999999705.595699999999852,1.60399999999936.398400000000038.22360000000026,1.019499999999425.335399999999936,1.865200000000186.335399999999936h8.576199999999517c2.537100000000464,0,4.625.498100000000704,6.267499999999927,1.490700000000288,2.984400000000278,1.741700000000492,4.474600000000464,4.748100000000704,4.474600000000464,9.022500000000946v4.177699999998367c0,3.730500000001484-.921800000000076,6.441400000001522-2.759700000000521,8.129899999999907-1.839899999999943,1.690400000001318-4.152399999999943,2.536200000000463-6.935599999999795,2.536200000000463-3.980400000000373,0-7.150400000000445-.02639999999883-9.511700000000019-.075199999999313-2.361299999999574-.049800000000687-4.935499999999593-.27350000000115-7.720699999999852-.670900000000984-2.783199999999852-.398499999999331-4.599600000000464-.967799999998533-5.445300000000316-1.714899999999034v-7.382799999999406h18.127000000000407c1.341800000000148,0,2.013599999999315-.647500000000946,2.013599999999315-1.940400000001318v-1.194400000000314c0-.694299999999203-.138599999999315-1.204999999999927-.410099999999147-1.527299999999741-.27350000000024-.325199999999313-.810600000000704-.486299999998664-1.603500000000167-.486299999998664h-8.281300000000556c-7.658199999999852,0-11.484399999999368-3.655300000000352-11.484399999999368-10.960500000001048Z" style="fill: #fff;"/>
            <path d="M71.568400000000111,33.580500000000029c0-5.552700000000186.613299999999981-9.859300000000076,1.835900000000038-12.916000000000167,1.222700000000259-3.056599999999889,3.14260000000013-5.207000000000335,5.76760000000013-6.457000000000335,2.625-1.246099999999387,6.33010000000013-1.870100000000093,11.119200000000092-1.870100000000093,7.029300000000148,0,11.906199999999444,1.526800000000549,14.632799999999406,4.58350000000064,2.724600000000464,3.056599999999889,4.086900000000242,8.495099999999184,4.086900000000242,16.312999999999192,0,7.820300000001225-1.336900000000242,13.181599999999889-4.010800000000017,16.084899999999834-2.674799999999777,2.906300000000556-7.53899999999976,4.35740000000078-14.594699999999648,4.35740000000078-7.055599999999686,0-11.958999999999833-1.516600000000835-14.708000000000538-4.546800000000076-2.752899999999499-3.031300000000556-4.128899999999703-8.215899999999237-4.128899999999703-15.548899999999776ZM83.929700000000594,27.956499999999323c-.054700000000594,1.858400000000074-.079999999999927,4.084000000000742-.079999999999927,6.682600000001003,0,2.595699999999852.20010000000002,4.648499999999331.597599999999147,6.160200000000259.398400000000038,1.50879999999961,1.004900000000816,2.495099999998274,1.83010000000013,2.942399999999907.822300000000723.452099999998609,2,.675699999999779,3.537100000000464.675699999999779,1.537099999999555,0,2.625-.051699999999983,3.259799999999814-.158199999999852.634699999999611-.106400000000576,1.233400000000074-.329999999999927,1.789999999999964-.676699999999983.556599999999889-.342800000000352.942399999999907-.938500000000204,1.152299999999741-1.787100000001374.475600000000668-1.751000000000204.715900000000147-4.120100000000093.715900000000147-7.117199999998775,0-2.995100000001003-.052799999999479-5.141600000000835-.159200000000055-6.442400000000816-.106499999999869-1.29779999999937-.268599999999424-2.4375-.475599999999758-3.417999999999665-.21389999999974-.979500000000371-.585900000000038-1.682099999999991-1.113299999999981-2.10739999999987-1.486299999999574-1.165500000000065-3.871100000000297-1.511199999999917-7.157199999999648-1.03269999999975-1.377900000000409.211899999999332-2.362300000000687.846699999999146-2.942400000000816,1.905799999999545-.584999999999127,1.063900000000103-.900399999999536,2.519500000000335-.95509999999922,4.372999999999593Z" style="fill: #fff;"/>
            <path d="M155.849700000000666,53.049300000000585V4.984300000000076l12.23239999999987-1.865200000000186v23.839799999999741l1.938499999999294-.534599999999955,9.770500000000538-12.979000000000269h15.291000000000167l-13.873100000000704,17.377900000000409,13.873100000000704,22.22610000000077h-14.468800000000556l-10.59270000000015-17.752000000000407-1.938499999999294.535200000000259v17.216800000000148h-12.23239999999987Z" style="fill: #fff;"/>
          </g>
          <g>
            <path d="M.027399999999943,44.101999999998952c.001900000000205,2.284200000000055,1.623500000000604,5.08600000000115,3.602499999999964,6.226599999999962l20.661200000000463,11.901300000001356c1.979000000000269,1.140699999999924,5.216300000000047,1.137699999999313,7.193299999999908-.006800000001022l20.641599999999926-11.940399999999499c1.977100000000064-1.144599999999627,3.592800000000352-3.949200000000928,3.590799999999945-6.233399999999165l-.023400000000038-23.846700000000965c-.001999999999498-2.284200000000055-1.623499999999694-5.085900000000038-3.602499999999964-6.226599999999962L31.426800000000185,2.073199999999815c-1.979000000000269-1.140599999999722-5.216300000000047-1.137200000000121-7.193400000000111.006800000000112L3.59479999999985,14.022899999999936C1.617700000000696,15.166999999999462.002000000000407,17.972099999999955.003900000000613,20.25630000000001l.023499999999331,23.845699999998942Z" style="fill: #fff;"/>
            <path d="M24.249099999999999,18.203099999999722c1.976999999999862-1.143600000000333,5.213800000000447-1.146499999999833,7.193299999999908-.006400000000212l6.691400000000613,3.854500000000371c1.979499999999462,1.140199999999822,3.600599999999758,3.942399999999907,3.602599999999256,6.226599999999962l.007800000000316,7.717800000000352c.001900000000205,2.284200000000055-1.613800000000083,5.088799999999537-3.590799999999945,6.233399999999165l-6.6875,3.868099999999686c-1.977100000000064,1.144600000001446-5.21389999999974,1.147500000000946-7.193400000000111.006900000000314l-6.685499999999593-3.853499999999258c-1.979500000000371-1.140699999999924-3.600600000000668-3.942399999999907-3.603100000000268-6.226599999999962l-.00879999999961-7.721199999999953c-.002400000000307-2.284700000000157,1.613299999999981-5.089400000000751,3.590400000000045-6.232900000000882l6.683599999999387-3.866699999999582Z" style="fill: #fff;"/>
            <g style="clip-path: url(#clippath-1);">
              <g>
                <polygon points="27.828199999999924 0 55.689500000000407 16.049299999999675 55.720699999999852 48.20260000000053 27.88970000000063 64.303200000000288 .031300000000556 48.255299999998897 0 16.103000000000065 27.828199999999924 0" style="fill: #fff;"/>
                <polygon points="-14.045900000000074 26.802700000000186 -5.695299999999406 57.851999999998952 68.14260000000013 37.838299999999435 59.790100000000166 6.789499999999862 -14.045900000000074 26.802700000000186" style="fill: #fff;"/>
                <polygon points="-9.83389999999963 16.76509999999962 12.878900000000613 -5.99120000000039 62.82720000000063 45.14890000000014 40.111399999999776 67.906699999999546 -9.83389999999963 16.76509999999962" style="fill: #fff; mix-blend-mode: overlay; opacity: .5;"/>
              </g>
            </g>
          </g>
        </g>
      </g>
    </g>
  </g>
</svg>